<?xml version="1.0" encoding="UTF-8" standalone="no"?>
<!-- Generator: Adobe Illustrator 16.0.0, SVG Export Plug-In . SVG Version: 6.00 Build 0)  -->

<svg
   xmlns:dc="http://purl.org/dc/elements/1.1/"
   xmlns:cc="http://creativecommons.org/ns#"
   xmlns:rdf="http://www.w3.org/1999/02/22-rdf-syntax-ns#"
   xmlns:svg="http://www.w3.org/2000/svg"
   xmlns="http://www.w3.org/2000/svg"
   xmlns:sodipodi="http://sodipodi.sourceforge.net/DTD/sodipodi-0.dtd"
   xmlns:inkscape="http://www.inkscape.org/namespaces/inkscape"
   version="1.1"
   id="Layer_1"
   x="0px"
   y="0px"
   width="480"
   height="200"
   viewBox="0 0 480.00001 200"
   enable-background="new 0 0 595.279 841.891"
   xml:space="preserve"
   inkscape:version="0.91 r13725"
   sodipodi:docname="filter-icon_garden-furniture.svg"><metadata
     id="metadata185"><rdf:RDF><cc:Work
         rdf:about=""><dc:format>image/svg+xml</dc:format><dc:type
           rdf:resource="http://purl.org/dc/dcmitype/StillImage" /><dc:title></dc:title></cc:Work></rdf:RDF></metadata><defs
     id="defs183" /><sodipodi:namedview
     pagecolor="#ffffff"
     bordercolor="#666666"
     borderopacity="1"
     objecttolerance="10"
     gridtolerance="10"
     guidetolerance="10"
     inkscape:pageopacity="0"
     inkscape:pageshadow="2"
     inkscape:window-width="1366"
     inkscape:window-height="705"
     id="namedview181"
     showgrid="false"
     inkscape:zoom="2.2425706"
     inkscape:cx="379.01316"
     inkscape:cy="137.87159"
     inkscape:window-x="-8"
     inkscape:window-y="-8"
     inkscape:window-maximized="1"
     inkscape:current-layer="Layer_1" /><path
     vector-effect="non-scaling-stroke"
     stroke-miterlimit="10"
     d="m 47.968,60.088008 -26.44,2.112 3.173,78.272002 32.367,27.708 193.342,-27.708 127.989,49.283 79.322,-18.407 2.327,-38.072 -5.499,-1.481 c 0,0 7.396,-2.962 8.031,-5.29 0.644,-2.324 0.644,-12.897 0.644,-12.897 0,0 1.266,-0.429 -13.545,-4.653 -14.809,-4.237 -75.519,-15.873001 -75.519,-15.873001 l -38.294,-10.995 -12.97838,-7.12612 0.50538,-23.552881 c 0,0 2.75,-12.267 2.75,-15.647 0,0 -0.637,-1.694 -5.506,-2.116 -4.859,-0.421 -19.884,-1.693 -25.385,-2.965 -5.498,-1.27 -13.109,-4.229 -13.109,-4.229 0,0 -4.021,0.631 -8.043,1.903 -4.016,1.268 -31.307,2.747 -31.307,2.747 l -27.928,-0.634 c 0,0 -13.111,1.693 -17.341,2.331 -4.229,0.635 -33.213,2.956 -38.925,3.387 -5.708,0.416 -4.652,0.631 -5.708,0.416 -1.062,-0.206 -8.887,0.216 -11.847,-0.631 -2.962,-0.846 -0.424,-0.638 -9.312,-0.209 -8.882,0.425 -26.86,3.381 -39.343,3.171 -12.479,-0.212 -40.825,-0.212 -40.825,-0.212 0,0 -7.618,-2.75 -7.406,0.634 0.216,3.383 4.234,17.138 3.81,20.734 z"
     id="path6"
     inkscape:connector-curvature="0"
     style="fill:none;stroke:#583289;stroke-width:1.79999995;stroke-miterlimit:10"
     sodipodi:nodetypes="cccccccccccccccccccccccccccccccc" /><path
     vector-effect="non-scaling-stroke"
     stroke-miterlimit="10"
     d="m 40.357,61.139008 c 0,0 32.363,15.021001 33.419,16.924001 1.062,1.909 0.21,22.850001 0.21,22.850001 l 1.059,26.649 176.422,-24.747 124.597,42.519 c 0,0 2.334,1.269 10.789,0.419 8.463,-0.841 67.695,-13.958 67.695,-13.958"
     id="path8"
     inkscape:connector-curvature="0"
     style="fill:none;stroke:#583289;stroke-width:1.79999995;stroke-miterlimit:10" /><line
     vector-effect="non-scaling-stroke"
     stroke-miterlimit="10"
     x1="48.073997"
     y1="59.238037"
     x2="48.499001"
     y2="64.950012"
     id="line10"
     style="fill:none;stroke:#583289;stroke-width:1.79999995;stroke-miterlimit:10" /><path
     vector-effect="non-scaling-stroke"
     stroke-miterlimit="10"
     d="m 51.567,38.720008 c 0,0 25.173,7.717 30.563,9.198 5.396,1.484 7.724,0.744 9.631,5.078 1.898,4.336 7.717,29.407001 9.197,39.244001 1.48,9.836001 -0.744,12.057001 -2.119,13.010001 -1.367,0.95 -7.823,1.691 -8.88,1.482 -1.062,-0.21 -15.653,-10.261001 -15.653,-10.261001"
     id="path12"
     inkscape:connector-curvature="0"
     style="fill:none;stroke:#583289;stroke-width:1.79999995;stroke-miterlimit:10" /><path
     vector-effect="non-scaling-stroke"
     stroke-miterlimit="10"
     d="m 100.322,86.000009 c 0,0 27.396,-2.643 32.576,-2.012 5.186,0.637 6.979,1.59 8.357,1.059 1.375,-0.528 2.333,-1.69 1.479,-3.703 -0.844,-2.009 -3.696,-28.773001 -3.274,-45.690001"
     id="path14"
     inkscape:connector-curvature="0"
     style="fill:none;stroke:#583289;stroke-width:1.79999995;stroke-miterlimit:10" /><path
     vector-effect="non-scaling-stroke"
     stroke-miterlimit="10"
     d="m 142.418,84.731009 c 0,0 0.212,2.109 4.233,0.422 4.019,-1.693 16.073,-3.597 23.478,-4.334 7.405,-0.744 25.596,-3.284 33.951,-3.39 8.358,-0.106 14.595,0.634 16.504,-1.482 1.899,-2.114 -2.325,-14.912001 -2.325,-14.912001 0,0 -4.445,-23.903 -3.393,-30.567"
     id="path16"
     inkscape:connector-curvature="0"
     style="fill:none;stroke:#583289;stroke-width:1.79999995;stroke-miterlimit:10" /><path
     vector-effect="non-scaling-stroke"
     stroke-miterlimit="10"
     d="m 220.793,76.583009 c 0,0 2.438,0.318 10.894,-2.325 8.467,-2.649001 39.034,-3.809001 39.034,-3.809001 0,0 0.736,-2.118 1.898,-4.23 1.166,-2.112 4.655,-21.575 4.655,-21.575 l 4.868,-18.19"
     id="path18"
     inkscape:connector-curvature="0"
     style="fill:none;stroke:#583289;stroke-width:1.79999995;stroke-miterlimit:10" /><path
     vector-effect="non-scaling-stroke"
     stroke-miterlimit="10"
     d="m 270.72,70.449008 c 0,0 7.511,2.328001 13.642,3.065001 6.136,0.737 18.716,5.715 19.777,6.771 1.062,1.06 6.668,0.209 8.566,0 1.907,-0.21 3.707,-1.372 3.707,-1.372 l 6.979,-27.505001"
     id="path20"
     inkscape:connector-curvature="0"
     style="fill:none;stroke:#583289;stroke-width:1.79999995;stroke-miterlimit:10" /><path
     vector-effect="non-scaling-stroke"
     stroke-miterlimit="10"
     d="m 139.459,84.991009 c 0,0 30.461,11.267 31.57,14.116 l -0.318,14.601001"
     id="path22"
     inkscape:connector-curvature="0"
     style="fill:none;stroke:#583289;stroke-width:1.79999995;stroke-miterlimit:10" /><line
     vector-effect="non-scaling-stroke"
     stroke-miterlimit="10"
     x1="74.572998"
     y1="112.12402"
     x2="171.02901"
     y2="99.901001"
     id="line24"
     style="fill:none;stroke:#583289;stroke-width:1.79999995;stroke-miterlimit:10" /><polyline
     vector-effect="non-scaling-stroke"
     stroke-miterlimit="10"
     points="235.029,266.998 316.579,256.849     316.448,270.363   "
     id="polyline26"
     style="fill:none;stroke:#583289;stroke-width:1.79999995;stroke-miterlimit:10"
     transform="translate(-64,-167.89099)" /><polyline
     vector-effect="non-scaling-stroke"
     stroke-miterlimit="10"
     points="282.316,245.113 316.741,256.056     372.898,275.097 445.243,296.196 527.222,281.499   "
     id="polyline28"
     style="fill:none;stroke:#583289;stroke-width:1.79999995;stroke-miterlimit:10"
     transform="translate(-64,-167.89099)" /><line
     vector-effect="non-scaling-stroke"
     stroke-miterlimit="10"
     x1="381.24301"
     y1="128.30505"
     x2="380.44699"
     y2="146.23102"
     id="line30"
     style="fill:none;stroke:#583289;stroke-width:1.79999995;stroke-miterlimit:10" /><path
     vector-effect="non-scaling-stroke"
     stroke-miterlimit="10"
     d="m 377.915,93.880009 c 0,0 -57.914,9.361001 -62.83,10.314001 -4.915,0.953 -6.819,2.538 -6.819,2.538 l -0.643,15.225 -0.519,40.303"
     id="path32"
     inkscape:connector-curvature="0"
     style="fill:none;stroke:#583289;stroke-width:1.79999995;stroke-miterlimit:10" /><path
     vector-effect="non-scaling-stroke"
     stroke-miterlimit="10"
     d="m 252.741,88.165009 64.405,-8.405 c 0,0 7.614,-0.16 9.995,0.314 2.382,0.479 9.843,2.222 9.843,2.222"
     id="path34"
     inkscape:connector-curvature="0"
     style="fill:none;stroke:#583289;stroke-width:1.79999995;stroke-miterlimit:10" /><line
     vector-effect="non-scaling-stroke"
     stroke-miterlimit="10"
     x1="169.811"
     y1="114.448"
     x2="169.395"
     y2="151.896"
     id="line40"
     style="fill:none;stroke:#583289;stroke-width:1.79999995;stroke-miterlimit:10" /><line
     vector-effect="non-scaling-stroke"
     stroke-miterlimit="10"
     x1="251.04099"
     y1="102.81604"
     x2="250.40701"
     y2="140.47205"
     id="line42"
     style="fill:none;stroke:#583289;stroke-width:1.79999995;stroke-miterlimit:10" /><line
     vector-effect="non-scaling-stroke"
     stroke-miterlimit="10"
     x1="378.599"
     y1="189.125"
     x2="379.65799"
     y2="146.18005"
     id="line44"
     style="fill:none;stroke:#583289;stroke-width:1.79999995;stroke-miterlimit:10" /><polyline
     vector-effect="non-scaling-stroke"
     stroke-miterlimit="10"
     points="85.74,230.938 115.567,247.227     136.719,245.113   "
     id="polyline46"
     style="fill:none;stroke:#583289;stroke-width:1.79999995;stroke-miterlimit:10"
     transform="translate(-64,-167.89099)" /><line
     vector-effect="non-scaling-stroke"
     stroke-miterlimit="10"
     x1="56.219002"
     y1="167.11804"
     x2="51.567001"
     y2="79.335999"
     id="line48"
     style="fill:none;stroke:#583289;stroke-width:1.79999995;stroke-miterlimit:10" /><path
     vector-effect="non-scaling-stroke"
     stroke-miterlimit="10"
     d="m 40.357,61.139008 c 0,0 32.363,15.021001 33.419,16.924001 1.062,1.909 0.21,22.850001 0.21,22.850001 l 1.059,26.649 176.422,-24.747 124.597,42.519 c 0,0 2.334,1.269 10.789,0.419 8.463,-0.841 67.695,-13.958 67.695,-13.958"
     id="path50"
     inkscape:connector-curvature="0"
     style="fill:none;stroke:#583289;stroke-width:1.79999995;stroke-miterlimit:10" /><line
     vector-effect="non-scaling-stroke"
     stroke-miterlimit="10"
     x1="48.073997"
     y1="59.238037"
     x2="48.499001"
     y2="64.950012"
     id="line52"
     style="fill:none;stroke:#583289;stroke-width:1.79999995;stroke-miterlimit:10" /><path
     vector-effect="non-scaling-stroke"
     stroke-miterlimit="10"
     d="m 51.567,38.720008 c 0,0 25.173,7.717 30.563,9.198 5.396,1.484 7.724,0.744 9.631,5.078 1.898,4.336 7.717,29.407001 9.197,39.244001 1.48,9.836001 -0.744,12.057001 -2.119,13.010001 -1.367,0.95 -7.823,1.691 -8.88,1.482 -1.062,-0.21 -15.653,-10.261001 -15.653,-10.261001"
     id="path54"
     inkscape:connector-curvature="0"
     style="fill:none;stroke:#583289;stroke-width:1.79999995;stroke-miterlimit:10" /><path
     vector-effect="non-scaling-stroke"
     stroke-miterlimit="10"
     d="m 100.322,86.000009 c 0,0 27.396,-2.643 32.576,-2.012 5.186,0.637 6.979,1.59 8.357,1.059 1.375,-0.528 2.333,-1.69 1.479,-3.703 -0.844,-2.009 -3.696,-28.773001 -3.274,-45.690001"
     id="path56"
     inkscape:connector-curvature="0"
     style="fill:none;stroke:#583289;stroke-width:1.79999995;stroke-miterlimit:10" /><path
     vector-effect="non-scaling-stroke"
     stroke-miterlimit="10"
     d="m 142.418,84.731009 c 0,0 0.212,2.109 4.233,0.422 4.019,-1.693 16.073,-3.597 23.478,-4.334 7.405,-0.744 25.596,-3.284 33.951,-3.39 8.358,-0.106 14.595,0.634 16.504,-1.482 1.899,-2.114 -2.325,-14.912001 -2.325,-14.912001 0,0 -4.445,-23.903 -3.393,-30.567"
     id="path58"
     inkscape:connector-curvature="0"
     style="fill:none;stroke:#583289;stroke-width:1.79999995;stroke-miterlimit:10" /><path
     vector-effect="non-scaling-stroke"
     stroke-miterlimit="10"
     d="m 220.793,76.583009 c 0,0 2.438,0.318 10.894,-2.325 8.467,-2.649001 39.034,-3.809001 39.034,-3.809001 0,0 0.736,-2.118 1.898,-4.23 1.166,-2.112 4.655,-21.575 4.655,-21.575 l 4.868,-18.19"
     id="path60"
     inkscape:connector-curvature="0"
     style="fill:none;stroke:#583289;stroke-width:1.79999995;stroke-miterlimit:10" /><path
     vector-effect="non-scaling-stroke"
     stroke-miterlimit="10"
     d="m 270.72,70.449008 c 0,0 7.511,2.328001 13.642,3.065001 6.136,0.737 18.716,5.715 19.777,6.771 1.062,1.06 6.668,0.209 8.566,0 1.907,-0.21 3.707,-1.372 3.707,-1.372 l 6.979,-27.505001"
     id="path62"
     inkscape:connector-curvature="0"
     style="fill:none;stroke:#583289;stroke-width:1.79999995;stroke-miterlimit:10" /><path
     vector-effect="non-scaling-stroke"
     stroke-miterlimit="10"
     d="m 139.459,84.991009 c 0,0 30.461,11.267 31.57,14.116 l -0.318,14.601001"
     id="path64"
     inkscape:connector-curvature="0"
     style="fill:none;stroke:#583289;stroke-width:1.79999995;stroke-miterlimit:10" /><line
     vector-effect="non-scaling-stroke"
     stroke-miterlimit="10"
     x1="74.572998"
     y1="112.12402"
     x2="171.02901"
     y2="99.901001"
     id="line66"
     style="fill:none;stroke:#583289;stroke-width:1.79999995;stroke-miterlimit:10" /><polyline
     vector-effect="non-scaling-stroke"
     stroke-miterlimit="10"
     points="235.029,266.998 316.579,256.849     316.448,270.363   "
     id="polyline68"
     style="fill:none;stroke:#583289;stroke-width:1.79999995;stroke-miterlimit:10"
     transform="translate(-64,-167.89099)" /><polyline
     vector-effect="non-scaling-stroke"
     stroke-miterlimit="10"
     points="282.316,245.113 316.741,256.056     372.898,275.097 445.243,296.196 527.222,281.499   "
     id="polyline70"
     style="fill:none;stroke:#583289;stroke-width:1.79999995;stroke-miterlimit:10"
     transform="translate(-64,-167.89099)" /><line
     vector-effect="non-scaling-stroke"
     stroke-miterlimit="10"
     x1="381.24301"
     y1="128.30505"
     x2="380.44699"
     y2="146.23102"
     id="line72"
     style="fill:none;stroke:#583289;stroke-width:1.79999995;stroke-miterlimit:10" /><path
     vector-effect="non-scaling-stroke"
     stroke-miterlimit="10"
     d="m 377.915,93.880009 c 0,0 -57.914,9.361001 -62.83,10.314001 -4.915,0.953 -6.819,2.538 -6.819,2.538 l -0.643,15.225 -0.519,40.303"
     id="path74"
     inkscape:connector-curvature="0"
     style="fill:none;stroke:#583289;stroke-width:1.79999995;stroke-miterlimit:10" /><path
     vector-effect="non-scaling-stroke"
     stroke-miterlimit="10"
     d="m 252.741,88.165009 64.405,-8.405 c 0,0 7.614,-0.16 9.995,0.314 2.382,0.479 9.843,2.222 9.843,2.222"
     id="path76"
     inkscape:connector-curvature="0"
     style="fill:none;stroke:#583289;stroke-width:1.79999995;stroke-miterlimit:10" /><line
     vector-effect="non-scaling-stroke"
     stroke-miterlimit="10"
     x1="397.33957"
     y1="50.283508"
     x2="393.36017"
     y2="96.462646"
     id="line80"
     style="fill:none;stroke:#583289;stroke-width:2.41510177;stroke-miterlimit:10" /><line
     vector-effect="non-scaling-stroke"
     stroke-miterlimit="10"
     x1="169.811"
     y1="114.448"
     x2="169.395"
     y2="151.896"
     id="line82"
     style="fill:none;stroke:#583289;stroke-width:1.79999995;stroke-miterlimit:10" /><line
     vector-effect="non-scaling-stroke"
     stroke-miterlimit="10"
     x1="251.04099"
     y1="102.81604"
     x2="250.40701"
     y2="140.47205"
     id="line84"
     style="fill:none;stroke:#583289;stroke-width:1.79999995;stroke-miterlimit:10" /><line
     vector-effect="non-scaling-stroke"
     stroke-miterlimit="10"
     x1="378.599"
     y1="189.125"
     x2="379.65799"
     y2="146.18005"
     id="line86"
     style="fill:none;stroke:#583289;stroke-width:1.79999995;stroke-miterlimit:10" /><polyline
     vector-effect="non-scaling-stroke"
     stroke-miterlimit="10"
     points="85.74,230.938 115.567,247.227     136.719,245.113   "
     id="polyline88"
     style="fill:none;stroke:#583289;stroke-width:1.79999995;stroke-miterlimit:10"
     transform="translate(-64,-167.89099)" /><line
     vector-effect="non-scaling-stroke"
     stroke-miterlimit="10"
     x1="56.219002"
     y1="167.11804"
     x2="51.567001"
     y2="79.335999"
     id="line90"
     style="fill:none;stroke:#583289;stroke-width:1.79999995;stroke-miterlimit:10" /><path
     id="path4313"
     d="m 336.72,82.449009 c 0,0 7.511,2.328 13.642,3.065 6.136,0.737 18.716,5.715 19.777,6.771 1.062,1.06 6.668,0.209 8.566,0 1.907,-0.21 3.707,-1.372 3.707,-1.372 l 10.44742,-40.748051"
     stroke-miterlimit="10"
     vector-effect="non-scaling-stroke"
     inkscape:connector-curvature="0"
     style="fill:none;stroke:#583289;stroke-width:1.79999995;stroke-miterlimit:10"
     sodipodi:nodetypes="cccscc" /><g
     id="Layer_7"
     transform="translate(0,-641.89101)" /><path
     sodipodi:nodetypes="cccscc"
     style="fill:none;stroke:#583289;stroke-width:1.79999995;stroke-miterlimit:10"
     inkscape:connector-curvature="0"
     vector-effect="non-scaling-stroke"
     stroke-miterlimit="10"
     d="m 326.018,36.742528 c 0,0 1.04521,-2.80004 11.85833,-2.286 6.136,0.737 24.51292,4.82317 25.57392,5.87917 7.30483,1.28296 13.1338,3.10746 15.0318,2.89846 1.907,-0.21 11.95645,2.50552 11.95645,2.50552 1.51301,0.23323 2.46862,1.96226 2.19796,4.73547"
     id="path4452" /><line
     style="fill:none;stroke:#583289;stroke-width:2.011;stroke-miterlimit:10;stroke-dasharray:none"
     id="line4454"
     y2="45.546631"
     x2="390.50858"
     y1="51.166748"
     x1="398.33328"
     stroke-miterlimit="10"
     vector-effect="non-scaling-stroke"
     inkscape:transform-center-x="-9.6565118"
     inkscape:transform-center-y="0.76087108" /></svg>