<?xml version="1.0" encoding="UTF-8" standalone="no"?>
<!-- Created with Inkscape (http://www.inkscape.org/) -->

<svg
   xmlns:dc="http://purl.org/dc/elements/1.1/"
   xmlns:cc="http://creativecommons.org/ns#"
   xmlns:rdf="http://www.w3.org/1999/02/22-rdf-syntax-ns#"
   xmlns:svg="http://www.w3.org/2000/svg"
   xmlns="http://www.w3.org/2000/svg"
   xmlns:sodipodi="http://sodipodi.sourceforge.net/DTD/sodipodi-0.dtd"
   xmlns:inkscape="http://www.inkscape.org/namespaces/inkscape"
   id="svg2"
   version="1.1"
   inkscape:version="0.91 r13725"
   width="210"
   height="140"
   viewBox="0 0 210 140"
   sodipodi:docname="dining.svg">
  <metadata
     id="metadata8">
    <rdf:RDF>
      <cc:Work
         rdf:about="">
        <dc:format>image/svg+xml</dc:format>
        <dc:type
           rdf:resource="http://purl.org/dc/dcmitype/StillImage" />
        <dc:title></dc:title>
      </cc:Work>
    </rdf:RDF>
  </metadata>
  <defs
     id="defs6" />
  <sodipodi:namedview
     pagecolor="#ffffff"
     bordercolor="#666666"
     borderopacity="1"
     objecttolerance="10"
     gridtolerance="10"
     guidetolerance="10"
     inkscape:pageopacity="0"
     inkscape:pageshadow="2"
     inkscape:window-width="1366"
     inkscape:window-height="705"
     id="namedview4"
     showgrid="false"
     inkscape:zoom="1.4833529"
     inkscape:cx="13.383175"
     inkscape:cy="168.16637"
     inkscape:window-x="-8"
     inkscape:window-y="-8"
     inkscape:window-maximized="1"
     inkscape:current-layer="svg2" />
  <path
     style="fill:none;fill-rule:evenodd;stroke:#000000;stroke-width:1px;stroke-linecap:butt;stroke-linejoin:miter;stroke-opacity:1"
     d="m 2.476695,8.576271 8.342161,0.476695"
     id="path4138"
     inkscape:connector-curvature="0" />
  <path
     style="fill:#000000;fill-opacity:1;fill-rule:evenodd;stroke:#000000;stroke-width:1px;stroke-linecap:butt;stroke-linejoin:miter;stroke-opacity:1"
     d="m 2.715042,8.337924 0.238348,129.899366 7.388771,-0.23835 2.145127,-1.90678 0,-45.04767 39.804026,0.23835 5.005296,44.57097 2.383475,2.62183 4.528602,0 L 63.731992,82.70233 16.0625,82.46398 12.010593,9.052966 Z"
     id="path4140"
     inkscape:connector-curvature="0" />
  <path
     style="fill:none;fill-rule:evenodd;stroke:#000000;stroke-width:1px;stroke-linecap:butt;stroke-linejoin:miter;stroke-opacity:1"
     d="M 15.585805,57.914195 19.637712,53.862288 17.730932,6.192796 C 17.293962,5.159957 16.499471,4.365466 15.347458,3.809322 14.295202,3.599731 13.704551,3.785802 13.202331,4.047669 12.686966,4.406575 12.252334,5.53563 11.973483,6.288725 Z"
     id="path4142"
     inkscape:connector-curvature="0"
     sodipodi:nodetypes="ccccccc" />
  <path
     inkscape:connector-curvature="0"
     id="path4144"
     d="m 16.702035,78.06392 0.125037,4.3509 49.728805,-0.51409 c 1.654287,-0.0688 1.640142,0.14808 2.460213,-2.30418 0.139658,-0.8601 -0.0034,-1.58653 -0.168014,-2.15179 -0.504594,-0.76115 -1.009187,-1.00687 -1.513781,-1.30889 z"
     style="fill:none;fill-rule:evenodd;stroke:#000000;stroke-width:1px;stroke-linecap:butt;stroke-linejoin:miter;stroke-opacity:1"
     sodipodi:nodetypes="ccccccc" />
  <ellipse
     style="opacity:1;fill:#000000;fill-opacity:1;fill-rule:nonzero;stroke:none;stroke-width:2.01099992;stroke-linecap:round;stroke-linejoin:round;stroke-miterlimit:10;stroke-dasharray:none;stroke-opacity:1"
     id="path4146"
     cx="105.92414"
     cy="44.727013"
     rx="64.75914"
     ry="7.1398993" />
  <path
     style="fill:none;fill-rule:evenodd;stroke:#000000;stroke-width:1px;stroke-linecap:butt;stroke-linejoin:miter;stroke-opacity:1"
     d="m 170.61547,45.520127 c -8.71827,6.178062 -117.1249,6.968999 -129.422673,0.238347 l 0,10.368115 c 1.421645,7.590891 120.839613,8.875361 129.661013,0.119174 z"
     id="path4150"
     inkscape:connector-curvature="0"
     sodipodi:nodetypes="ccccc" />
  <path
     style="fill:#000000;fill-opacity:1;fill-rule:evenodd;stroke:#000000;stroke-width:1px;stroke-linecap:butt;stroke-linejoin:miter;stroke-opacity:1"
     d="m 100.30297,61.9661 -0.13962,48.12677 c -1.03876,8.13778 -17.866774,15.3179 -31.081421,17.09617 -1.799111,1.0808 -1.771285,2.82676 0.06981,3.77266 24.947031,5.38314 48.630041,3.59005 73.577071,0.12516 0.79607,-1.16701 0.76307,-2.2822 -0.23834,-3.33686 -9.48482,-2.78225 -30.92658,-10.03429 -31.39205,-17.50057 L 110.55191,61.9661 Z"
     id="path4154"
     inkscape:connector-curvature="0"
     sodipodi:nodetypes="ccccccccc" />
  <path
     inkscape:connector-curvature="0"
     id="path4156"
     d="m 207.30967,8.576271 -8.34216,0.476695"
     style="fill:none;fill-rule:evenodd;stroke:#000000;stroke-width:1px;stroke-linecap:butt;stroke-linejoin:miter;stroke-opacity:1" />
  <path
     inkscape:connector-curvature="0"
     id="path4158"
     d="m 207.07133,8.337924 -0.23835,129.899366 -7.38877,-0.23835 -2.14513,-1.90678 0,-45.04767 -39.80402,0.23835 -5.0053,44.57097 -2.38348,2.62183 -4.5286,0 0.4767,-55.77331 47.66949,-0.23835 4.05191,-73.411014 z"
     style="fill:#000000;fill-opacity:1;fill-rule:evenodd;stroke:#000000;stroke-width:1px;stroke-linecap:butt;stroke-linejoin:miter;stroke-opacity:1" />
  <path
     sodipodi:nodetypes="ccccccc"
     inkscape:connector-curvature="0"
     id="path4160"
     d="m 194.20057,57.914195 -4.05191,-4.051907 1.90678,-47.669492 c 0.43697,-1.032839 1.23146,-1.82733 2.38347,-2.383474 1.05226,-0.209591 1.64291,-0.02352 2.14513,0.238347 0.51536,0.358906 0.95,1.487961 1.22885,2.241056 z"
     style="fill:none;fill-rule:evenodd;stroke:#000000;stroke-width:1px;stroke-linecap:butt;stroke-linejoin:miter;stroke-opacity:1" />
  <path
     sodipodi:nodetypes="ccccccc"
     style="fill:none;fill-rule:evenodd;stroke:#000000;stroke-width:1px;stroke-linecap:butt;stroke-linejoin:miter;stroke-opacity:1"
     d="m 193.08434,78.06392 -0.12504,4.3509 -49.72881,-0.51409 c -1.65428,-0.0688 -1.64014,0.14808 -2.46021,-2.30418 -0.13966,-0.8601 0.003,-1.58653 0.16801,-2.15179 0.5046,-0.76115 1.00919,-1.00687 1.51378,-1.30889 z"
     id="path4162"
     inkscape:connector-curvature="0" />
  <path
     style="fill:none;fill-rule:evenodd;stroke:#000000;stroke-width:1px;stroke-linecap:butt;stroke-linejoin:miter;stroke-opacity:1"
     d="m 43.959746,48.533594 3.038929,8.461335"
     id="path4164"
     inkscape:connector-curvature="0"
     sodipodi:nodetypes="cc" />
  <path
     style="fill:none;fill-rule:evenodd;stroke:#000000;stroke-width:1.01397085px;stroke-linecap:butt;stroke-linejoin:miter;stroke-opacity:1"
     d="m 49.0882,49.945477 3.150136,8.101216"
     id="path4166"
     inkscape:connector-curvature="0"
     sodipodi:nodetypes="cc" />
  <path
     style="fill:none;fill-rule:evenodd;stroke:#000000;stroke-width:1px;stroke-linecap:butt;stroke-linejoin:miter;stroke-opacity:1"
     d="m 54.1491,50.823358 3.396451,7.984638"
     id="path4168"
     inkscape:connector-curvature="0"
     sodipodi:nodetypes="cc" />
  <path
     style="fill:none;fill-rule:evenodd;stroke:#000000;stroke-width:1px;stroke-linecap:butt;stroke-linejoin:miter;stroke-opacity:1"
     d="m 12.707619,9.142755 4.887576,-0.08427"
     id="path4176"
     inkscape:connector-curvature="0" />
  <path
     style="fill:none;fill-rule:evenodd;stroke:#000000;stroke-width:1px;stroke-linecap:butt;stroke-linejoin:miter;stroke-opacity:1"
     d="m 197.59282,9.395561 -5.05611,0"
     id="path4178"
     inkscape:connector-curvature="0" />
  <path
     style="fill:none;fill-rule:evenodd;stroke:#000000;stroke-width:1px;stroke-linecap:butt;stroke-linejoin:miter;stroke-opacity:1"
     d="M 64.111435,82.54066 63.774361,76.13625"
     id="path4180"
     inkscape:connector-curvature="0" />
  <path
     style="fill:none;fill-rule:evenodd;stroke:#000000;stroke-width:1px;stroke-linecap:butt;stroke-linejoin:miter;stroke-opacity:1"
     d="m 146.69462,76.13625 0,6.40441"
     id="path4182"
     inkscape:connector-curvature="0" />
</svg>
