<?xml version="1.0" encoding="UTF-8" standalone="no"?>
<!-- Created with Inkscape (http://www.inkscape.org/) -->

<svg
   xmlns:dc="http://purl.org/dc/elements/1.1/"
   xmlns:cc="http://creativecommons.org/ns#"
   xmlns:rdf="http://www.w3.org/1999/02/22-rdf-syntax-ns#"
   xmlns:svg="http://www.w3.org/2000/svg"
   xmlns="http://www.w3.org/2000/svg"
   xmlns:sodipodi="http://sodipodi.sourceforge.net/DTD/sodipodi-0.dtd"
   xmlns:inkscape="http://www.inkscape.org/namespaces/inkscape"
   id="svg2"
   version="1.1"
   inkscape:version="0.91 r13725"
   width="140"
   height="150"
   viewBox="0 0 140 150"
   sodipodi:docname="headboards.svg">
  <metadata
     id="metadata8">
    <rdf:RDF>
      <cc:Work
         rdf:about="">
        <dc:format>image/svg+xml</dc:format>
        <dc:type
           rdf:resource="http://purl.org/dc/dcmitype/StillImage" />
        <dc:title></dc:title>
      </cc:Work>
    </rdf:RDF>
  </metadata>
  <defs
     id="defs6" />
  <sodipodi:namedview
     pagecolor="#ffffff"
     bordercolor="#666666"
     borderopacity="1"
     objecttolerance="10"
     gridtolerance="10"
     guidetolerance="10"
     inkscape:pageopacity="0"
     inkscape:pageshadow="2"
     inkscape:window-width="1366"
     inkscape:window-height="705"
     id="namedview4"
     showgrid="true"
     inkscape:zoom="1.4833529"
     inkscape:cx="61.141569"
     inkscape:cy="145.38125"
     inkscape:window-x="-8"
     inkscape:window-y="-8"
     inkscape:window-maximized="1"
     inkscape:current-layer="svg2"
     height="139px">
    <inkscape:grid
       type="xygrid"
       id="grid4163" />
  </sodipodi:namedview>
  <path
     style="fill:none;fill-rule:evenodd;stroke:#000000;stroke-width:1px;stroke-linecap:butt;stroke-linejoin:miter;stroke-opacity:1"
     d="m 20,78 97.59587,0.64248"
     id="path4165"
     inkscape:connector-curvature="0"
     sodipodi:nodetypes="cc" />
  <path
     style="fill:#000000;fill-opacity:1;fill-rule:evenodd;stroke:#000000;stroke-width:1px;stroke-linecap:butt;stroke-linejoin:miter;stroke-opacity:1"
     d="m 117.87156,78.57733 1.72802,-2.44306 0.17876,-28.00583 c -0.80071,-2.13298 -1.90746,-3.99393 -4.70737,-4.34984 l -90.810377,0.4767 c -2.686607,0.55993 -4.503622,1.81553 -4.945709,4.17108 l -0.178761,26.57574 1.310911,2.62182 -17.399364,32.77278 0.373079,25.55367 6.067336,4.5505 -0.168537,6.99429 15.589682,0.25281 0.421343,-7.33137 90.455447,0.60774 -0.23835,6.19704 15.49258,0 0,-6.97166 6.61415,-5.482 0.29793,-22.10672 z"
     id="path4138"
     inkscape:connector-curvature="0"
     sodipodi:nodetypes="ccccccccccccccccccccc" />
  <path
     style="fill:#ffffff;fill-opacity:1;fill-rule:evenodd;stroke:#000000;stroke-width:1.24368525px;stroke-linecap:butt;stroke-linejoin:miter;stroke-opacity:1"
     d="m 72.82869,55.04097 c 19.27747,4.238 32.99349,2.62718 45.52627,-0.22799 -2.54257,8.03042 -3.51458,16.06085 -0.36131,24.09127 -14.45496,-2.24315 -29.78353,-1.91374 -45.59854,-0.152 2.20142,-7.90376 1.75361,-15.80752 0.43358,-23.71128 z"
     id="path4140"
     inkscape:connector-curvature="0"
     sodipodi:nodetypes="ccccc" />
  <path
     inkscape:connector-curvature="0"
     id="path4142"
     d="m 21.523702,55.1335 c 8.258773,3.6722 30.278987,3.5407 42.466138,-0.22297 -2.18893,7.9882 -2.4683,15.85255 -0.33705,23.56054 C 49.474953,76.13981 35.297108,75.89047 21.119264,78.32243 24.6547,70.59279 24.596463,62.86314 21.523702,55.1335 Z"
     style="fill:#ffffff;fill-opacity:1;fill-rule:evenodd;stroke:#000000;stroke-width:1.18785524px;stroke-linecap:butt;stroke-linejoin:miter;stroke-opacity:1"
     sodipodi:nodetypes="ccccc" />
  <path
     style="fill:#ffffff;fill-opacity:1;fill-rule:evenodd;stroke:#000000;stroke-width:1px;stroke-linecap:butt;stroke-linejoin:miter;stroke-opacity:1"
     d="m 20.923729,83.10593 96.769071,-0.23834 13.22828,23.23887 -122.033898,0 z"
     id="path4144"
     inkscape:connector-curvature="0" />
  <path
     style="fill:none;fill-rule:evenodd;stroke:#000000;stroke-width:1px;stroke-linecap:butt;stroke-linejoin:miter;stroke-opacity:1"
     d="m 12.10041,141.09077 -0.08427,3.70782 11.039182,0.16853 0,-3.87635 z"
     id="path4146"
     inkscape:connector-curvature="0" />
  <path
     style="fill:none;fill-rule:evenodd;stroke:#000000;stroke-width:1px;stroke-linecap:butt;stroke-linejoin:miter;stroke-opacity:1"
     d="m 118.48946,140.79583 0.16853,4.2977 10.02796,-0.16854 -0.0421,-4.17129 z"
     id="path4148"
     inkscape:connector-curvature="0" />
  <path
     sodipodi:nodetypes="cccccccc"
     inkscape:connector-curvature="0"
     id="path4158"
     d="m 24.029895,14.965 c 0.680873,9.20325 3.017231,18.68241 -0.02979,27.26434 l 90.491155,0.0298 c -3.70622,-10.71313 -0.27799,-17.50231 0,-26.02413 C 112.06508,32.75665 99.57918,34.64237 92.4926,18.541802 82.01214,35.68754 75.69644,30.52806 68.223,4.055721 60,27 56.300371,38 45.861,18.38897 36.019595,33.87851 27.400261,33 24.029895,14.965 Z"
     style="fill:#000000;fill-opacity:1;fill-rule:evenodd;stroke:#000000;stroke-width:1px;stroke-linecap:butt;stroke-linejoin:miter;stroke-opacity:1" />
  <path
     style="opacity:1;fill:#ffbe00;fill-opacity:1;fill-rule:nonzero;stroke:none;stroke-width:2.01099992;stroke-linecap:round;stroke-linejoin:round;stroke-miterlimit:10;stroke-dasharray:none;stroke-opacity:1"
     d="m 68.06479,26.00584 7.12734,8.38565 -7.16413,6.72467 -7.327,-6.92095 z"
     id="rect4160"
     inkscape:connector-curvature="0"
     sodipodi:nodetypes="ccccc" />
  <ellipse
     style="opacity:1;fill:#ffbe00;fill-opacity:1;fill-rule:nonzero;stroke:none;stroke-width:2.01099992;stroke-linecap:round;stroke-linejoin:round;stroke-miterlimit:10;stroke-dasharray:none;stroke-opacity:1"
     id="path4167"
     cx="36.277283"
     cy="35.767471"
     rx="4.1061969"
     ry="3.7674773" />
  <ellipse
     ry="3.7674773"
     rx="4.1061969"
     cy="35.767471"
     cx="52.277283"
     id="ellipse4169"
     style="opacity:1;fill:#ffbe00;fill-opacity:1;fill-rule:nonzero;stroke:none;stroke-width:2.01099992;stroke-linecap:round;stroke-linejoin:round;stroke-miterlimit:10;stroke-dasharray:none;stroke-opacity:1" />
  <ellipse
     ry="3.7674773"
     rx="4.1061969"
     cy="35.767471"
     cx="84.277283"
     id="ellipse4171"
     style="opacity:1;fill:#ffbe00;fill-opacity:1;fill-rule:nonzero;stroke:none;stroke-width:2.01099992;stroke-linecap:round;stroke-linejoin:round;stroke-miterlimit:10;stroke-dasharray:none;stroke-opacity:1" />
  <ellipse
     style="opacity:1;fill:#ffbe00;fill-opacity:1;fill-rule:nonzero;stroke:none;stroke-width:2.01099992;stroke-linecap:round;stroke-linejoin:round;stroke-miterlimit:10;stroke-dasharray:none;stroke-opacity:1"
     id="ellipse4173"
     cx="100.27728"
     cy="35.767471"
     rx="4.1061969"
     ry="3.7674773" />
</svg>
