<?xml version="1.0" encoding="UTF-8" standalone="no"?>
<!-- Created with Inkscape (http://www.inkscape.org/) -->

<svg
   xmlns:dc="http://purl.org/dc/elements/1.1/"
   xmlns:cc="http://creativecommons.org/ns#"
   xmlns:rdf="http://www.w3.org/1999/02/22-rdf-syntax-ns#"
   xmlns:svg="http://www.w3.org/2000/svg"
   xmlns="http://www.w3.org/2000/svg"
   xmlns:sodipodi="http://sodipodi.sourceforge.net/DTD/sodipodi-0.dtd"
   xmlns:inkscape="http://www.inkscape.org/namespaces/inkscape"
   width="100mm"
   height="50mm"
   viewBox="0 0 354.33071 177.16533"
   id="svg2"
   version="1.1"
   inkscape:version="0.91 r13725"
   sodipodi:docname="logo.svg"
   inkscape:export-filename="C:\Workspace\pioneerdesigns\public\images\logo.png"
   inkscape:export-xdpi="89"
   inkscape:export-ydpi="89">
  <defs
     id="defs4" />
  <sodipodi:namedview
     id="base"
     pagecolor="#ffffff"
     bordercolor="#666666"
     borderopacity="1.0"
     inkscape:pageopacity="0.0"
     inkscape:pageshadow="2"
     inkscape:zoom="1.4"
     inkscape:cx="128.30415"
     inkscape:cy="100.19042"
     inkscape:document-units="px"
     inkscape:current-layer="layer1"
     showgrid="true"
     showguides="false"
     inkscape:window-width="1366"
     inkscape:window-height="705"
     inkscape:window-x="-8"
     inkscape:window-y="-8"
     inkscape:window-maximized="1">
    <inkscape:grid
       type="xygrid"
       id="grid4194" />
  </sodipodi:namedview>
  <metadata
     id="metadata7">
    <rdf:RDF>
      <cc:Work
         rdf:about="">
        <dc:format>image/svg+xml</dc:format>
        <dc:type
           rdf:resource="http://purl.org/dc/dcmitype/StillImage" />
        <dc:title />
      </cc:Work>
    </rdf:RDF>
  </metadata>
  <g
     inkscape:label="Layer 1"
     inkscape:groupmode="layer"
     id="layer1"
     transform="translate(0,-875.19689)">
    <path
       style="fill:#ba009c;fill-opacity:1;fill-rule:evenodd;stroke:#ba0092;stroke-width:1px;stroke-linecap:butt;stroke-linejoin:miter;stroke-opacity:1"
       d="m 2.934,954.89751 148.0432,-1.18196 -23.391,74.73395 -78.617,0.05 38.131,-148.31703 -67.384,0.0497 z"
       id="path4173"
       inkscape:connector-curvature="0"
       sodipodi:nodetypes="ccccccc" />
    <g
       transform="translate(-9.356943,697.94321)"
       style="font-style:normal;font-weight:normal;font-size:40px;line-height:125%;font-family:sans-serif;letter-spacing:0px;word-spacing:0px;fill:#000000;fill-opacity:1;stroke:none;stroke-width:1px;stroke-linecap:butt;stroke-linejoin:miter;stroke-opacity:1"
       id="flowRoot4136">
      <path
         d="m 31.724143,253.79102 20.116677,-57.26075 11.515323,-1.75781 -9.271464,30.05859 c 1.523437,-0.11719 7.772464,-0.6117 9.006141,-1.23046 1.376953,-0.70313 2.651367,-1.59668 3.823242,-2.68067 1.171875,-1.11328 2.226563,-2.38769 3.164063,-3.82324 0.9375,-1.43555 1.728516,-2.94434 2.373047,-4.52637 0.673828,-1.61133 1.186523,-3.25195 1.538086,-4.92187 0.351563,-1.69922 0.527344,-3.35449 0.527344,-4.96582 0,-1.66993 -0.219727,-3.23731 -0.65918,-4.70215 -0.410157,-1.49414 -1.069336,-2.79785 -1.977539,-3.91113 -0.878907,-1.14258 -2.036133,-2.03614 -3.47168,-2.68067 -1.40625,-0.64453 -3.09082,-0.9668 -5.053711,-0.9668 -3.662109,0 -6.943359,0.49805 -9.84375,1.49415 -2.871093,0.99609 -5.302734,2.43164 -7.294922,4.30664 -1.992187,1.875 -3.515625,4.1748 -4.570312,6.89941 -1.054687,2.69531 -1.582031,5.75684 -1.582031,9.18457 0,1.14258 0.05859,2.08008 0.175781,2.8125 0.146484,0.70313 0.292968,1.27442 0.439453,1.71387 0.146484,0.41015 0.27832,0.73242 0.395508,0.96679 0.146484,0.23438 0.219726,0.43946 0.219726,0.61524 -1.552734,0 -2.929687,-0.14648 -4.130859,-0.43945 -1.201172,-0.32227 -2.211914,-0.82031 -3.032227,-1.49414 -0.791015,-0.67383 -1.40625,-1.56739 -1.845703,-2.68067 -0.410156,-1.11328 -0.615234,-2.49023 -0.615234,-4.13086 0,-1.99219 0.424805,-3.95508 1.274414,-5.88867 0.878906,-1.93359 2.065429,-3.76465 3.55957,-5.49316 1.523437,-1.72852 3.295898,-3.3252 5.317383,-4.79004 2.050781,-1.46485 4.233399,-2.72461 6.547852,-3.7793 2.34375,-1.08399 4.77539,-1.91895 7.294921,-2.50488 2.548829,-0.61523 5.083009,-0.92285 7.60254,-0.92285 3.691406,0 6.870117,0.49805 9.536132,1.49414 2.666016,0.96679 4.863282,2.2705 6.591797,3.91113 1.757813,1.64063 3.046875,3.53027 3.867188,5.66894 0.820312,2.10938 1.230468,4.3213 1.230468,6.63575 0,2.87109 -0.600586,5.74219 -1.801757,8.61328 -1.171875,2.87109 -2.885743,5.46387 -5.141602,7.77832 -2.226563,2.28515 -4.951172,4.1455 -8.173828,5.58105 -3.193359,1.43555 -11.511025,2.15332 -15.553993,2.15332 l -0.483399,0 -6.593504,25.66407 z"
         style="font-style:normal;font-variant:normal;font-weight:normal;font-stretch:normal;font-size:90px;font-family:Lobster;-inkscape-font-specification:Lobster;fill:#ffffff;fill-opacity:1"
         id="path4157"
         inkscape:connector-curvature="0"
         sodipodi:nodetypes="ccccccsccscccscscscccccccscccccscccscccsccc" />
      <path
         d="m 111.05859,196.83789 q 0,1.49414 -0.57129,2.8125 -0.57128,1.27441 -1.58203,2.24121 -0.96679,0.92285 -2.28515,1.49414 -1.27442,0.52735 -2.76856,0.52735 -1.49414,0 -2.8125,-0.52735 -1.274412,-0.57129 -2.241208,-1.49414 -0.966797,-0.9668 -1.538086,-2.24121 -0.527344,-1.31836 -0.527344,-2.8125 0,-1.49414 0.527344,-2.76855 0.571289,-1.31836 1.538086,-2.28516 0.966796,-1.01074 2.241208,-1.58203 1.31836,-0.57129 2.8125,-0.57129 1.49414,0 2.76856,0.57129 1.31836,0.57129 2.28515,1.58203 1.01075,0.9668 1.58203,2.28516 0.57129,1.27441 0.57129,2.76855 z m 5.58106,40.8252 q -1.27442,3.64746 -2.85645,6.32812 -1.53808,2.68066 -3.25195,4.52637 -1.66992,1.8457 -3.47168,2.98828 -1.75781,1.14258 -3.42773,1.75781 -1.66993,0.61524 -3.20801,0.83496 -1.494143,0.21973 -2.680666,0.21973 -2.021484,0 -3.779297,-0.61524 -1.757812,-0.61523 -3.076172,-1.93359 -1.274414,-1.31836 -2.021484,-3.33984 -0.74707,-2.02149 -0.74707,-4.87793 0,-1.23047 0.175781,-2.68067 0.175781,-1.49414 0.527344,-3.208 l 6.108398,-28.87207 12.963866,0 -6.45996,30.58593 q -0.21973,0.74707 -0.30762,1.49414 -0.0439,0.70313 -0.0439,1.40625 0,1.88965 0.8789,2.63672 0.87891,0.70313 2.76856,0.70313 1.31836,0 2.54883,-0.57129 1.27441,-0.61524 2.3291,-1.66992 1.05469,-1.05469 1.88965,-2.50489 0.83496,-1.49414 1.3623,-3.208 l 3.7793,0 z"
         style="font-style:normal;font-variant:normal;font-weight:normal;font-stretch:normal;font-size:90px;font-family:Lobster;-inkscape-font-specification:Lobster;fill:#ffffff;fill-opacity:1"
         id="path4159"
         inkscape:connector-curvature="0" />
      <path
         d="m 163.48535,219.60156 q -2.63672,2.76856 -6.81152,4.70215 -4.17481,1.93359 -9.14063,2.76856 -0.52734,6.24023 -2.41699,11.25 -1.8457,5.00976 -4.70215,8.52539 -2.85644,3.51562 -6.54785,5.40527 -3.69141,1.88965 -7.82226,1.88965 -3.12012,0 -5.80079,-0.74707 -2.63671,-0.79102 -4.57031,-2.46094 -1.88965,-1.71387 -2.94433,-4.39453 -1.09864,-2.72461 -1.09864,-6.5918 0,-2.63672 0.57129,-5.97656 0.52735,-3.38379 1.71387,-6.94336 1.23047,-3.55957 3.12012,-6.94336 1.93359,-3.42773 4.6582,-6.1084 2.76855,-2.68066 6.37207,-4.30664 Q 131.66895,208 136.2832,208 q 11.55762,0 11.55762,14.37012 l 0,0.0879 q 0.21973,0.0879 0.39551,0.0879 0.21972,0 0.57129,0 1.58203,0 3.38379,-0.43945 1.8457,-0.4834 3.6914,-1.23047 1.84571,-0.74707 3.60352,-1.71387 1.75781,-1.01074 3.20801,-2.02149 l 0.79101,2.46094 z m -23.42285,7.73438 q -1.40625,-0.35157 -1.93359,-1.36231 -0.4834,-1.05468 -0.4834,-2.41699 0,-1.88965 0.74707,-3.07617 0.79101,-1.23047 2.06543,-1.80176 -0.0879,-1.45019 -0.30762,-2.41699 -0.21973,-1.01074 -0.61523,-1.62598 -0.39551,-0.65918 -1.01075,-0.92285 -0.57129,-0.26367 -1.49414,-0.26367 -1.62597,0 -3.12011,1.27441 -1.49414,1.23047 -2.85645,3.2959 -1.31836,2.06543 -2.46094,4.74609 -1.09863,2.63672 -1.88964,5.44922 -0.79102,2.8125 -1.23047,5.58106 -0.43946,2.72461 -0.43946,4.96582 0,2.24121 0.21973,3.64746 0.26367,1.40625 0.79102,2.24121 0.57128,0.79102 1.45019,1.09863 0.87891,0.30762 2.15332,0.30762 1.62598,0 3.25195,-1.45019 1.66993,-1.4502 3.07618,-3.95508 1.40625,-2.50489 2.46093,-5.93262 1.09864,-3.42773 1.62598,-7.38281 z"
         style="font-style:normal;font-variant:normal;font-weight:normal;font-stretch:normal;font-size:90px;font-family:Lobster;-inkscape-font-specification:Lobster;fill:#ffffff;fill-opacity:1"
         id="path4161"
         inkscape:connector-curvature="0" />
      <path
         d="m 201.67383,237.66309 q -1.88965,5.53711 -4.08692,8.833 -2.15332,3.2959 -4.39453,5.05371 -2.19726,1.71387 -4.35058,2.24122 -2.10938,0.52734 -3.91114,0.52734 -2.98828,0 -5.00976,-0.83496 -2.02149,-0.87891 -3.25195,-2.28516 -1.23047,-1.45019 -1.80176,-3.25195 -0.52735,-1.8457 -0.52735,-3.7793 0,-2.28515 0.61524,-5.31738 0.65918,-3.07617 1.40625,-6.28418 0.74707,-3.20801 1.3623,-6.19629 0.65918,-2.98828 0.65918,-5.1416 0,-4.61426 -3.25195,-4.61426 -1.23047,0 -2.28516,0.65918 -1.05468,0.65918 -1.93359,1.80176 -0.87891,1.09863 -1.58203,2.63672 -0.70313,1.49414 -1.23047,3.20801 l -6.1084,28.87207 -12.96387,0 9.53614,-45 12.96386,0 -0.96679,4.6582 q 1.45019,-1.62598 2.85644,-2.59277 1.4502,-1.01075 2.8125,-1.53809 1.36231,-0.52734 2.54883,-0.70313 1.23047,-0.17578 2.28516,-0.17578 2.15332,0 3.99902,0.57129 1.8457,0.57129 3.16406,1.80176 1.36231,1.23047 2.10938,3.16406 0.74707,1.9336 0.74707,4.61426 0,1.80176 -0.35156,3.91113 -0.30762,2.06543 -0.79102,4.2627 -0.4834,2.15332 -1.05469,4.30664 -0.52734,2.15332 -1.01074,4.13086 -0.4834,1.97754 -0.83496,3.6914 -0.30762,1.66993 -0.30762,2.94434 0,1.66992 0.74707,2.72461 0.79102,1.05469 2.85645,1.05469 1.45019,0 2.54883,-0.57129 1.09863,-0.57129 1.97753,-1.62598 0.87891,-1.05469 1.58204,-2.50488 0.74707,-1.49414 1.45019,-3.25195 l 3.7793,0 z"
         style="font-style:normal;font-variant:normal;font-weight:normal;font-stretch:normal;font-size:90px;font-family:Lobster;-inkscape-font-specification:Lobster;fill:#ffffff;fill-opacity:1"
         id="path4163"
         inkscape:connector-curvature="0" />
      <path
         d="m 235.59961,237.66309 q -1.88965,3.16406 -4.35059,6.15234 -2.41699,2.98828 -5.49316,5.31738 -3.03223,2.3291 -6.76758,3.7793 -3.69141,1.40625 -8.12988,1.40625 -3.20801,0 -5.80078,-0.79102 -2.59278,-0.83496 -4.43848,-2.54882 -1.8457,-1.71387 -2.8125,-4.39454 -1.01074,-2.72461 -1.01074,-6.54785 0,-2.59277 0.52734,-5.97656 0.52735,-3.38379 1.66992,-6.94336 1.14258,-3.55957 3.03223,-6.9873 1.88965,-3.42774 4.57031,-6.1084 2.68067,-2.72461 6.28418,-4.35059 Q 216.4834,208 221.09766,208 q 3.03222,0 4.92187,0.74707 1.93359,0.70313 3.03223,1.88965 1.14258,1.18652 1.53808,2.76855 0.43946,1.53809 0.43946,3.20801 0,3.91113 -1.71387,7.29492 -1.71387,3.33985 -4.61426,5.84473 -2.85644,2.50488 -6.5918,4.04297 -3.73535,1.53808 -7.77832,1.80176 -0.0879,1.01074 -0.17578,1.93359 -0.0439,0.87891 -0.0439,1.66992 0,2.28516 0.39551,3.7793 0.43945,1.45019 1.23046,2.28515 0.83497,0.83497 2.02149,1.18653 1.23047,0.30762 2.85644,0.30762 2.68067,0 4.83399,-0.70313 2.19726,-0.70312 4.08691,-1.93359 1.88965,-1.23047 3.55957,-2.90039 1.71387,-1.66993 3.42774,-3.55957 l 3.07617,0 z m -24.56543,-6.37207 q 2.54883,-0.17579 4.92187,-1.4502 2.37305,-1.27441 4.17481,-3.2959 1.80176,-2.06543 2.85644,-4.6582 1.09864,-2.63672 1.09864,-5.44922 0,-1.66992 -0.4834,-2.68066 -0.4834,-1.01075 -1.75781,-1.01075 -1.71387,0 -3.38379,1.66993 -1.62598,1.62597 -3.07617,4.26269 -1.4502,2.63672 -2.59278,5.97656 -1.09863,3.2959 -1.75781,6.63575 z"
         style="font-style:normal;font-variant:normal;font-weight:normal;font-stretch:normal;font-size:90px;font-family:Lobster;-inkscape-font-specification:Lobster;fill:#ffffff;fill-opacity:1"
         id="path4165"
         inkscape:connector-curvature="0" />
      <path
         d="m 270.22852,237.66309 q -1.88965,3.16406 -4.35059,6.15234 -2.41699,2.98828 -5.49316,5.31738 -3.03223,2.3291 -6.76758,3.7793 -3.69141,1.40625 -8.12989,1.40625 -3.208,0 -5.80078,-0.79102 -2.59277,-0.83496 -4.43847,-2.54882 -1.84571,-1.71387 -2.8125,-4.39454 -1.01075,-2.72461 -1.01075,-6.54785 0,-2.59277 0.52735,-5.97656 0.52734,-3.38379 1.66992,-6.94336 1.14258,-3.55957 3.03223,-6.9873 1.88965,-3.42774 4.57031,-6.1084 2.68066,-2.72461 6.28418,-4.35059 Q 251.1123,208 255.72656,208 q 3.03223,0 4.92188,0.74707 1.93359,0.70313 3.03222,1.88965 1.14258,1.18652 1.53809,2.76855 0.43945,1.53809 0.43945,3.20801 0,3.91113 -1.71386,7.29492 -1.71387,3.33985 -4.61426,5.84473 -2.85645,2.50488 -6.5918,4.04297 -3.73535,1.53808 -7.77832,1.80176 -0.0879,1.01074 -0.17578,1.93359 -0.0439,0.87891 -0.0439,1.66992 0,2.28516 0.39551,3.7793 0.43946,1.45019 1.23047,2.28515 0.83496,0.83497 2.02149,1.18653 1.23046,0.30762 2.85644,0.30762 2.68066,0 4.83398,-0.70313 2.19727,-0.70312 4.08692,-1.93359 1.88965,-1.23047 3.55957,-2.90039 1.71387,-1.66993 3.42773,-3.55957 l 3.07618,0 z m -24.56543,-6.37207 q 2.54882,-0.17579 4.92187,-1.4502 2.37305,-1.27441 4.17481,-3.2959 1.80175,-2.06543 2.85644,-4.6582 1.09863,-2.63672 1.09863,-5.44922 0,-1.66992 -0.48339,-2.68066 -0.4834,-1.01075 -1.75782,-1.01075 -1.71386,0 -3.38379,1.66993 -1.62597,1.62597 -3.07617,4.26269 -1.45019,2.63672 -2.59277,5.97656 -1.09863,3.2959 -1.75781,6.63575 z"
         style="font-style:normal;font-variant:normal;font-weight:normal;font-stretch:normal;font-size:90px;font-family:Lobster;-inkscape-font-specification:Lobster;fill:#ffffff;fill-opacity:1"
         id="path4167"
         inkscape:connector-curvature="0" />
      <path
         d="m 263.8125,253.79102 9.53613,-45 12.96387,0 -1.14258,5.58105 q 1.18653,-1.05469 2.41699,-2.06543 1.23047,-1.01074 2.54883,-1.75781 1.36231,-0.79102 2.8125,-1.27442 1.4502,-0.48339 3.07617,-0.48339 1.53809,0 2.68067,0.57128 1.18652,0.57129 1.97754,1.49415 0.79101,0.92285 1.18652,2.15332 0.39551,1.23046 0.39551,2.54882 0,1.18653 -0.39551,2.37305 -0.39551,1.14258 -1.23047,2.06543 -0.79101,0.92285 -2.02148,1.53809 -1.23047,0.57129 -2.85645,0.57129 -1.27441,0 -1.97754,-0.43946 -0.65918,-0.43945 -1.01074,-1.09863 -0.35156,-0.65918 -0.52734,-1.40625 -0.13184,-0.79102 -0.30762,-1.4502 -0.17578,-0.65918 -0.4834,-1.09863 -0.26367,-0.43945 -0.92285,-0.43945 -2.06543,0 -3.47168,0.96679 -1.40625,0.92286 -3.07617,2.46094 l -7.20703,34.18946 -12.96387,0 z"
         style="font-style:normal;font-variant:normal;font-weight:normal;font-stretch:normal;font-size:90px;font-family:Lobster;-inkscape-font-specification:Lobster;fill:#ffffff;fill-opacity:1"
         id="path4169"
         inkscape:connector-curvature="0" />
    </g>
    <g
       transform="translate(38.07163,457.08606)"
       style="font-style:normal;font-weight:normal;font-size:40px;line-height:125%;font-family:sans-serif;letter-spacing:0px;word-spacing:0px;fill:#000000;fill-opacity:1;stroke:none;stroke-width:1px;stroke-linecap:butt;stroke-linejoin:miter;stroke-opacity:1"
       id="flowRoot4144">
      <path
         d="m 37.081812,566.97616 17.61643,-58.16073 13.31543,-1.75781 -16.110344,51.34921 c 1.640625,1.20117 6.525242,1.66966 10.441399,0.90176 1.753712,-0.34388 3.457031,-0.55664 5.009765,-1.66992 1.552735,-1.11328 2.958985,-2.62207 4.21875,-4.52637 1.289063,-1.93359 2.431641,-4.18945 3.427735,-6.76757 0.996093,-2.57813 1.831054,-5.33203 2.504882,-8.26172 0.703125,-2.95899 1.230469,-5.99121 1.582032,-9.09668 0.351562,-3.13477 0.527343,-6.22559 0.527343,-9.27246 0,-3.04688 -0.322266,-5.63965 -0.966797,-7.77832 -0.615234,-2.16797 -1.508789,-3.92579 -2.680664,-5.27344 -1.142578,-1.37695 -2.519531,-2.37305 -4.130859,-2.98828 -1.611328,-0.64453 -3.398437,-0.9668 -5.361328,-0.9668 -3.339844,0 -6.445313,0.49805 -9.316406,1.49414 -2.871094,0.99609 -5.361328,2.44629 -7.470703,4.35059 -2.109375,1.875 -3.764649,4.16016 -4.965821,6.85547 -1.201172,2.69531 -1.801758,5.75684 -1.801758,9.18457 0,1.14257 0.05859,2.08007 0.175782,2.8125 0.146484,0.70312 0.292968,1.27441 0.439453,1.71386 0.146484,0.41016 0.27832,0.73243 0.395508,0.9668 0.146484,0.23437 0.219726,0.43945 0.219726,0.61524 -3.017578,0 -5.375976,-0.62988 -7.075195,-1.88965 -1.699219,-1.25977 -2.548828,-3.41309 -2.548828,-6.45996 0,-2.05079 0.395508,-4.05762 1.186523,-6.02051 0.820313,-1.99219 1.962891,-3.86719 3.427735,-5.625 1.464843,-1.75781 3.222656,-3.36914 5.273437,-4.83399 2.050781,-1.49414 4.306641,-2.7832 6.767578,-3.86718 2.490235,-1.08399 5.15625,-1.91895 7.998047,-2.50489 2.841797,-0.61523 5.786133,-0.92285 8.833008,-0.92285 2.900391,0 5.507812,0.32227 7.822265,0.9668 2.314453,0.64453 4.365235,1.55274 6.152344,2.72461 1.787109,1.14258 3.310547,2.51953 4.570313,4.13086 1.289062,1.58203 2.329101,3.33984 3.120117,5.27343 0.820313,1.9043 1.420899,3.95508 1.801758,6.15235 0.380859,2.16797 0.571289,4.39453 0.571289,6.67969 0,3.42773 -0.307617,6.87011 -0.922852,10.32714 -0.615234,3.45703 -1.479492,6.76758 -2.592773,9.93165 -1.083985,3.16406 -2.402344,6.12304 -3.955078,8.87695 -1.523438,2.72461 -3.208008,5.09765 -5.053711,7.11914 -1.845703,2.02149 -3.823242,3.61817 -5.932617,4.79004 -2.080079,1.14258 -4.233399,1.71387 -6.459961,1.71387 -1.757813,0 -3.450276,-0.10635 -5.361329,-0.14221 -2.344867,-0.044 -8.991203,-2.07792 -10.924797,-3.74784 l -0.846906,3.60351 z"
         style="font-style:normal;font-variant:normal;font-weight:normal;font-stretch:normal;font-size:90px;font-family:Lobster;-inkscape-font-specification:Lobster;fill:#ffffff;fill-opacity:1"
         id="path4176"
         inkscape:connector-curvature="0"
         sodipodi:nodetypes="ccccsscsccscccsscssccccsscscccssccccssccscssccc" />
      <path
         d="m 137.38281,551.94824 q -1.88965,3.16406 -4.35058,6.15235 -2.417,2.98828 -5.49317,5.31738 -3.03222,2.3291 -6.76758,3.7793 -3.6914,1.40625 -8.12988,1.40625 -3.20801,0 -5.80078,-0.79102 -2.59277,-0.83496 -4.43848,-2.54883 -1.8457,-1.71387 -2.812496,-4.39453 -1.010742,-2.72461 -1.010742,-6.54785 0,-2.59277 0.527343,-5.97656 0.527344,-3.38379 1.669925,-6.94336 1.14258,-3.55957 3.03222,-6.98731 1.88965,-3.42773 4.57032,-6.1084 2.68066,-2.72461 6.28418,-4.35058 3.60351,-1.66992 8.21777,-1.66992 3.03223,0 4.92187,0.74707 1.9336,0.70312 3.03223,1.88964 1.14258,1.18653 1.53809,2.76856 0.43945,1.53809 0.43945,3.20801 0,3.91113 -1.71387,7.29492 -1.71386,3.33984 -4.61425,5.84473 -2.85645,2.50488 -6.5918,4.04296 -3.73535,1.53809 -7.77832,1.80176 -0.0879,1.01074 -0.17578,1.9336 -0.0439,0.8789 -0.0439,1.66992 0,2.28515 0.39551,3.77929 0.43945,1.4502 1.23047,2.28516 0.83496,0.83496 2.02148,1.18652 1.23047,0.30762 2.85645,0.30762 2.68066,0 4.83398,-0.70312 2.19727,-0.70313 4.08692,-1.9336 1.88964,-1.23047 3.55957,-2.90039 1.71386,-1.66992 3.42773,-3.55957 l 3.07617,0 z m -24.56543,-6.37207 q 2.54883,-0.17578 4.92188,-1.45019 2.37304,-1.27442 4.1748,-3.2959 1.80176,-2.06543 2.85645,-4.65821 1.09863,-2.63671 1.09863,-5.44921 0,-1.66993 -0.4834,-2.68067 -0.4834,-1.01074 -1.75781,-1.01074 -1.71387,0 -3.38379,1.66992 -1.62598,1.62598 -3.07617,4.2627 -1.4502,2.63672 -2.59277,5.97656 -1.09864,3.2959 -1.75782,6.63574 z"
         style="font-style:normal;font-variant:normal;font-weight:normal;font-stretch:normal;font-size:90px;font-family:Lobster;-inkscape-font-specification:Lobster;fill:#ffffff;fill-opacity:1"
         id="path4178"
         inkscape:connector-curvature="0" />
      <path
         d="m 172.53906,551.94824 q -3.51562,4.08692 -7.07519,6.76758 -3.51563,2.63672 -6.67969,4.48242 -1.40625,1.49414 -3.16406,2.54883 -1.71387,1.01074 -3.60352,1.66992 -1.8457,0.61524 -3.7793,0.87891 -1.88964,0.30762 -3.60351,0.30762 -3.38379,0 -5.88867,-1.01075 -2.46094,-1.05468 -4.08692,-2.68066 -1.62597,-1.66992 -2.37304,-3.69141 -0.79102,-2.06543 -0.79102,-4.13086 0,-1.58203 0.43945,-2.90039 0.39551,-1.3623 1.05469,-2.41699 0.65918,-1.05469 1.49414,-1.80176 0.87891,-0.79101 1.80176,-1.23047 3.7793,-6.76757 6.37207,-13.35937 2.59277,-6.63574 4.70215,-13.31543 l 13.31543,-1.75781 q 0.26367,5.84472 0.4834,10.15136 0.26367,4.2627 0.48339,7.42676 0.21973,3.12012 0.39551,5.31738 0.17578,2.19727 0.30762,3.91114 0.17578,1.66992 0.21973,3.07617 0.0879,1.3623 0.0879,2.85644 0,1.01075 -0.0879,1.84571 -0.0439,0.83496 -0.26368,1.58203 1.97754,-1.14258 3.55957,-2.24121 1.62598,-1.14258 2.9004,-2.28516 l 3.77929,0 z m -36.25488,3.25196 q 0,3.16406 1.23047,4.74609 1.27441,1.53808 4.26269,1.53808 1.49414,0 2.90039,-0.3955 1.40625,-0.43946 2.50489,-1.40625 1.09863,-1.01075 1.75781,-2.59278 0.65918,-1.58203 0.65918,-3.95507 0,-1.14258 -0.0879,-2.19727 -0.0439,-1.09863 -0.13184,-2.28516 -0.0879,-1.23047 -0.26367,-2.72461 -0.13184,-1.49414 -0.35156,-3.47168 -0.17578,-1.97753 -0.39551,-4.57031 -0.21973,-2.59277 -0.4834,-6.06445 -1.3623,4.39453 -3.20801,8.52539 -1.8457,4.13086 -4.08691,8.48144 0.87891,0.4834 1.4502,1.23047 0.61523,0.74707 0.61523,1.88965 0,0.83496 -0.26367,1.62598 -0.26367,0.79101 -0.79102,1.45019 -0.52734,0.61524 -1.27441,1.01075 -0.70313,0.35156 -1.62598,0.35156 -0.74707,0 -1.40625,-0.21973 -0.65918,-0.21972 -1.01074,-0.96679 z"
         style="font-style:normal;font-variant:normal;font-weight:normal;font-stretch:normal;font-size:90px;font-family:Lobster;-inkscape-font-specification:Lobster;fill:#ffffff;fill-opacity:1"
         id="path4180"
         inkscape:connector-curvature="0" />
      <path
         d="m 191.08398,511.12305 q 0,1.49414 -0.57128,2.8125 -0.57129,1.27441 -1.58204,2.24121 -0.96679,0.92285 -2.28515,1.49414 -1.27442,0.52734 -2.76856,0.52734 -1.49414,0 -2.8125,-0.52734 -1.27441,-0.57129 -2.24121,-1.49414 -0.96679,-0.9668 -1.53808,-2.24121 -0.52735,-1.31836 -0.52735,-2.8125 0,-1.49414 0.52735,-2.76856 0.57129,-1.31836 1.53808,-2.28515 0.9668,-1.01075 2.24121,-1.58204 1.31836,-0.57128 2.8125,-0.57128 1.49414,0 2.76856,0.57128 1.31836,0.57129 2.28515,1.58204 1.01075,0.96679 1.58204,2.28515 0.57128,1.27442 0.57128,2.76856 z m 5.58106,40.82519 q -1.27442,3.64746 -2.85645,6.32813 -1.53808,2.68066 -3.25195,4.52636 -1.66992,1.84571 -3.47168,2.98829 -1.75781,1.14257 -3.42773,1.75781 -1.66993,0.61523 -3.20801,0.83496 -1.49414,0.21973 -2.68067,0.21973 -2.02148,0 -3.77929,-0.61524 -1.75781,-0.61523 -3.07617,-1.93359 -1.27442,-1.31836 -2.02149,-3.33985 -0.74707,-2.02148 -0.74707,-4.87793 0,-1.23046 0.17578,-2.68066 0.17578,-1.49414 0.52735,-3.20801 l 6.10839,-28.87207 12.96387,0 -6.45996,30.58594 q -0.21973,0.74707 -0.30762,1.49414 -0.0439,0.70312 -0.0439,1.40625 0,1.88965 0.8789,2.63672 0.87891,0.70312 2.76856,0.70312 1.31836,0 2.54883,-0.57129 1.27441,-0.61523 2.3291,-1.66992 1.05469,-1.05468 1.88965,-2.50488 0.83496,-1.49414 1.3623,-3.20801 l 3.7793,0 z"
         style="font-style:normal;font-variant:normal;font-weight:normal;font-stretch:normal;font-size:90px;font-family:Lobster;-inkscape-font-specification:Lobster;fill:#ffffff;fill-opacity:1"
         id="path4182"
         inkscape:connector-curvature="0" />
      <path
         d="m 225.05371,575.2832 q -0.9668,4.83399 -2.8125,7.82227 -1.80176,2.98828 -4.04297,4.6582 -2.24121,1.66992 -4.70215,2.24121 -2.41699,0.57129 -4.6582,0.57129 -2.06543,0 -3.91113,-0.57129 -1.80176,-0.52734 -3.16406,-1.62597 -1.36231,-1.05469 -2.19727,-2.72461 -0.79102,-1.62598 -0.79102,-3.82325 0,-2.8125 1.31836,-4.96582 1.36231,-2.15332 3.47168,-3.77929 2.10938,-1.58203 4.70215,-2.72461 2.63672,-1.14258 5.18555,-1.9336 l 1.09863,-4.74609 q -1.97754,2.10938 -4.6582,3.51563 -2.63672,1.40625 -6.15235,1.40625 -2.3291,0 -4.48242,-0.74707 -2.15332,-0.74708 -3.82324,-2.46094 -1.66992,-1.71387 -2.68066,-4.48242 -1.01075,-2.76856 -1.01075,-6.76758 0,-3.07617 0.61524,-6.5918 0.61523,-3.51562 1.88965,-7.03125 1.27441,-3.51562 3.16406,-6.72363 1.93359,-3.25196 4.48242,-5.71289 2.59277,-2.50489 5.84473,-3.95508 3.25195,-1.49414 7.16308,-1.49414 3.82325,0 5.53711,1.31836 1.75782,1.31836 1.75782,3.25195 l 0,0.52734 0.96679,-4.6582 12.96387,0 -8.9209,41.74805 q 2.06543,-0.70313 3.73535,-1.66992 1.66992,-1.01075 3.03223,-2.50489 1.40625,-1.53808 2.50488,-3.64746 1.14258,-2.10937 2.06543,-5.05371 l 3.7793,0 q -1.36231,4.48242 -3.25195,7.47071 -1.84571,2.98828 -3.95508,4.92187 -2.10938,1.88965 -4.35059,2.90039 -2.24121,1.01074 -4.35058,1.53809 l -1.36231,6.5039 z m -3.69141,-43.72558 q 0,-0.39551 -0.17578,-0.9668 -0.17578,-0.57129 -0.61523,-1.09863 -0.39551,-0.52735 -1.09863,-0.87891 -0.70313,-0.39551 -1.80176,-0.39551 -1.88965,0 -3.60352,1.23047 -1.66992,1.23047 -3.07617,3.2959 -1.40625,2.02148 -2.50488,4.61426 -1.09863,2.59277 -1.88965,5.36133 -0.74707,2.72461 -1.14258,5.40527 -0.39551,2.63672 -0.39551,4.74609 0,2.59278 0.4834,3.99903 0.4834,1.40625 1.14258,2.10937 0.70313,0.65918 1.49414,0.79102 0.79102,0.13183 1.40625,0.13183 0.92285,0 1.97754,-0.43945 1.05469,-0.4834 2.06543,-1.3623 1.05469,-0.87891 1.88965,-2.19727 0.83496,-1.31836 1.27441,-3.03223 l 4.57031,-21.31347 z m -8.833,41.39648 q -1.75782,0.65918 -3.33985,1.40625 -1.58203,0.79102 -2.8125,1.71387 -1.18652,0.92285 -1.93359,2.02148 -0.70313,1.14258 -0.70313,2.50489 0,0.48339 0.17579,1.01074 0.17578,0.52734 0.52734,0.96679 0.39551,0.43946 0.9668,0.70313 0.57129,0.26367 1.3623,0.26367 1.40625,0 2.85645,-1.97754 1.49414,-1.93359 2.37304,-6.02051 l 0.52735,-2.59277 z"
         style="font-style:normal;font-variant:normal;font-weight:normal;font-stretch:normal;font-size:90px;font-family:Lobster;-inkscape-font-specification:Lobster;fill:#ffffff;fill-opacity:1"
         id="path4184"
         inkscape:connector-curvature="0" />
      <path
         d="m 287.85156,551.94824 q -1.88965,5.53711 -4.08691,8.83301 -2.15332,3.2959 -4.39453,5.05371 -2.19727,1.71387 -4.35059,2.24121 -2.10937,0.52735 -3.91113,0.52735 -2.98828,0 -5.00977,-0.83497 -2.02148,-0.8789 -3.25195,-2.28515 -1.23047,-1.4502 -1.80176,-3.25195 -0.52734,-1.84571 -0.52734,-3.7793 0,-2.28516 0.61523,-5.31738 0.65918,-3.07618 1.40625,-6.28418 0.74707,-3.20801 1.36231,-6.19629 0.65918,-2.98828 0.65918,-5.1416 0,-4.61426 -3.25196,-4.61426 -1.23047,0 -2.28515,0.65918 -1.05469,0.65918 -1.9336,1.80175 -0.8789,1.09864 -1.58203,2.63672 -0.70312,1.49414 -1.23047,3.20801 l -6.10839,28.87207 -12.96387,0 9.53613,-45 12.96387,0 -0.9668,4.6582 q 1.4502,-1.62597 2.85645,-2.59277 1.45019,-1.01074 2.8125,-1.53808 1.3623,-0.52735 2.54882,-0.70313 1.23047,-0.17578 2.28516,-0.17578 2.15332,0 3.99902,0.57129 1.84571,0.57129 3.16407,1.80176 1.3623,1.23046 2.10937,3.16406 0.74707,1.93359 0.74707,4.61426 0,1.80175 -0.35156,3.91113 -0.30762,2.06543 -0.79102,4.26269 -0.48339,2.15332 -1.05468,4.30665 -0.52735,2.15332 -1.01075,4.13085 -0.48339,1.97754 -0.83496,3.69141 -0.30761,1.66992 -0.30761,2.94434 0,1.66992 0.74707,2.72461 0.79101,1.05468 2.85644,1.05468 1.4502,0 2.54883,-0.57129 1.09863,-0.57128 1.97754,-1.62597 0.87891,-1.05469 1.58203,-2.50488 0.74707,-1.49415 1.4502,-3.25196 l 3.77929,0 z"
         style="font-style:normal;font-variant:normal;font-weight:normal;font-stretch:normal;font-size:90px;font-family:Lobster;-inkscape-font-specification:Lobster;fill:#ffffff;fill-opacity:1"
         id="path4186"
         inkscape:connector-curvature="0" />
      <path
         d="m 310.43945,520.30762 q 0.26367,5.84472 0.4834,10.15136 0.26367,4.2627 0.4834,7.42676 0.21973,3.12012 0.39551,5.31738 0.17578,2.19727 0.30761,3.91114 0.17579,1.66992 0.21973,3.07617 0.0879,1.3623 0.0879,2.85644 0,2.94434 -0.83496,5.27344 -0.79101,2.28516 -2.19726,3.99903 -1.36231,1.71386 -3.20801,2.94433 -1.80176,1.18653 -3.82324,1.9336 -1.97754,0.74707 -4.04297,1.05468 -2.06543,0.35157 -3.91114,0.35157 -3.38379,0 -5.88867,-1.01075 -2.46094,-1.05468 -4.08691,-2.68066 -1.62598,-1.66992 -2.37305,-3.69141 -0.79101,-2.06543 -0.79101,-4.13086 0,-1.58203 0.43945,-2.90039 0.39551,-1.3623 1.05469,-2.41699 0.65918,-1.05469 1.49414,-1.80176 0.8789,-0.79101 1.80175,-1.23047 3.7793,-6.76757 6.37207,-13.35937 2.59278,-6.63574 4.70215,-13.31543 l 13.31543,-1.75781 z M 286.0498,555.2002 q 0,3.16406 1.23047,4.74609 1.27442,1.53808 4.2627,1.53808 1.49414,0 2.90039,-0.3955 1.40625,-0.43946 2.50488,-1.40625 1.09863,-1.01075 1.75781,-2.59278 0.65918,-1.58203 0.65918,-3.95507 0,-1.14258 -0.0879,-2.19727 -0.0439,-1.09863 -0.13183,-2.28516 -0.0879,-1.23047 -0.26367,-2.72461 -0.13184,-1.49414 -0.35157,-3.47168 -0.17578,-1.97753 -0.3955,-4.57031 -0.21973,-2.59277 -0.4834,-6.06445 -1.36231,4.39453 -3.20801,8.52539 -1.8457,4.13086 -4.08691,8.48144 0.8789,0.4834 1.45019,1.23047 0.61523,0.74707 0.61523,1.88965 0,0.83496 -0.26367,1.62598 -0.26367,0.79101 -0.79101,1.45019 -0.52735,0.61524 -1.27442,1.01075 -0.70312,0.35156 -1.62597,0.35156 -0.74707,0 -1.40625,-0.21973 -0.65918,-0.21972 -1.01075,-0.96679 z"
         style="font-style:normal;font-variant:normal;font-weight:normal;font-stretch:normal;font-size:90px;font-family:Lobster;-inkscape-font-specification:Lobster;fill:#ffffff;fill-opacity:1"
         id="path4188"
         inkscape:connector-curvature="0" />
    </g>
    <path
       style="fill:#ffffff;fill-rule:evenodd;stroke:#ffffff;stroke-width:8;stroke-linecap:butt;stroke-linejoin:miter;stroke-miterlimit:4;stroke-dasharray:none;stroke-opacity:1;fill-opacity:1"
       d="m 48.9862,1037.691 179.514,-0.729"
       id="path4190"
       inkscape:connector-curvature="0"
       sodipodi:nodetypes="cc" />
    <path
       style="fill:#ffffff;fill-rule:evenodd;stroke:#ffffff;stroke-width:8;stroke-linecap:butt;stroke-linejoin:miter;stroke-miterlimit:4;stroke-dasharray:none;stroke-opacity:1;fill-opacity:1"
       d="m 267.0041,1036.9725 71.97337,0.5051"
       id="path4192"
       inkscape:connector-curvature="0" />
    <path
       style="fill:none;fill-rule:evenodd;stroke:#000000;stroke-width:0.7;stroke-linecap:round;stroke-linejoin:round;stroke-opacity:1;stroke-miterlimit:4;stroke-dasharray:none;stroke-dashoffset:0"
       d="M 48.453204,1028.4986 87.541165,880.16278"
       id="path4153"
       inkscape:connector-curvature="0"
       sodipodi:nodetypes="cc" />
    <path
       sodipodi:nodetypes="cc"
       inkscape:connector-curvature="0"
       id="path4155"
       d="M 2.7051076,955.01646 151.32366,953.48167"
       style="fill:none;fill-rule:evenodd;stroke:#000000;stroke-width:0.69999999;stroke-linecap:round;stroke-linejoin:round;stroke-miterlimit:4;stroke-dasharray:none;stroke-dashoffset:0;stroke-opacity:1" />
  </g>
</svg>
