<?xml version="1.0" encoding="UTF-8" standalone="no"?>
<!-- Created with Inkscape (http://www.inkscape.org/) -->

<svg
   xmlns:dc="http://purl.org/dc/elements/1.1/"
   xmlns:cc="http://creativecommons.org/ns#"
   xmlns:rdf="http://www.w3.org/1999/02/22-rdf-syntax-ns#"
   xmlns:svg="http://www.w3.org/2000/svg"
   xmlns="http://www.w3.org/2000/svg"
   xmlns:sodipodi="http://sodipodi.sourceforge.net/DTD/sodipodi-0.dtd"
   xmlns:inkscape="http://www.inkscape.org/namespaces/inkscape"
   id="svg2"
   version="1.1"
   inkscape:version="0.91 r13725"
   width="480"
   height="260"
   viewBox="0 0 480 260"
   sodipodi:docname="logo.svg"
   inkscape:export-filename="C:\Workspace\Ottomans\public\images\logo.png"
   inkscape:export-xdpi="89.957207"
   inkscape:export-ydpi="89.957207">
  <metadata
     id="metadata8">
    <rdf:RDF>
      <cc:Work
         rdf:about="">
        <dc:format>image/svg+xml</dc:format>
        <dc:type
           rdf:resource="http://purl.org/dc/dcmitype/StillImage" />
        <dc:title></dc:title>
      </cc:Work>
    </rdf:RDF>
  </metadata>
  <defs
     id="defs6" />
  <sodipodi:namedview
     pagecolor="#ffffff"
     bordercolor="#666666"
     borderopacity="1"
     objecttolerance="10"
     gridtolerance="10"
     guidetolerance="10"
     inkscape:pageopacity="0"
     inkscape:pageshadow="2"
     inkscape:window-width="1366"
     inkscape:window-height="705"
     id="namedview4"
     showgrid="true"
     inkscape:zoom="0.9216"
     inkscape:cx="135.3636"
     inkscape:cy="200.17667"
     inkscape:window-x="-8"
     inkscape:window-y="-8"
     inkscape:window-maximized="1"
     inkscape:current-layer="layer1">
    <inkscape:grid
       type="xygrid"
       id="grid4144" />
  </sodipodi:namedview>
  <g
     inkscape:groupmode="layer"
     id="layer2"
     inkscape:label="shadow"
     style="display:inline;opacity:0.55"
     transform="translate(0,-240)">
    <ellipse
       style="opacity:1;fill:#000500;fill-opacity:1;fill-rule:nonzero;stroke:#000000;stroke-opacity:1"
       id="path4161"
       cx="238"
       cy="473"
       rx="190"
       ry="20" />
  </g>
  <ellipse
     style="opacity:0;fill:#008080;fill-opacity:1"
     id="path3352"
     cx="110.18365"
     cy="98.328056"
     rx="67.518875"
     ry="44.117447" />
  <g
     inkscape:groupmode="layer"
     id="layer1"
     inkscape:label="sofa"
     style="display:inline"
     transform="translate(0,-240)">
    <path
       style="fill:#9e00a8;fill-opacity:1;fill-rule:evenodd;stroke:#9200ba;stroke-width:1px;stroke-linecap:butt;stroke-linejoin:miter;stroke-opacity:1"
       d="m 421.16406,438.70052 1.08507,-21.70139 c 3.13022,-19.16681 6.30423,-37.76436 10.8507,-38.51996 28.02436,9.74484 44.25531,-13.47917 44.48784,-27.66927 0.84073,-19.15494 -10.59434,-34.99964 -34.72222,-37.4349 -19.46994,-0.78905 -36.18134,7.09162 -45.57291,37.97743 -4.28717,22.04316 -2.94644,41.97586 4.34027,59.67882 -0.0532,4.20724 -5.43236,-4.90034 -22.78646,-43.94531 -44.21253,-7.46998 -90.15788,-10.6079 -137.26128,-10.8507 -55.33631,-1.66243 -99.54411,3.35223 -140.51649,10.30816 -6.52689,15.65141 -18.54269,43.44517 -20.61632,41.77518 7.80214,-18.06234 7.08892,-34.90821 4.88281,-51.5408 C 77.60425,329.72135 64.67306,315.29439 46.8151,312.83246 15,315 6.609158,335 5.582465,343.2144 2.745516,382.41372 28.71187,383.89673 46.8151,377.3941 c 6.33627,7.69818 9.368,24.20848 11.39323,43.40277 l 0.54254,18.44619 z"
       id="path3338"
       inkscape:connector-curvature="0"
       sodipodi:nodetypes="cccccccccccccccccc" />
    <path
       style="fill:#9200ba;fill-opacity:1;fill-rule:evenodd;stroke:#9200ba;stroke-width:1.00238633px;stroke-linecap:butt;stroke-linejoin:miter;stroke-opacity:1"
       d="m 76.62535,310.29494 c 3.48461,-56.39085 53.43246,-61.59361 76.57739,-63.55419 48.26518,-4.02449 75.38618,20.24551 110.44186,34.62532 71.03979,33.72299 111.21823,32.54504 151.00452,30.9236 -16.40841,15.9139 -24.75409,31.8278 -31.07313,47.7417 C 291.02988,352.3304 276.86914,339.93716 95.96277,358.49972 78.76726,344.09591 77.10996,321.90409 76.62535,310.29494 Z"
       id="path3340"
       inkscape:connector-curvature="0"
       sodipodi:nodetypes="ccccccc" />
    <path
       style="fill:#000000;fill-opacity:1;fill-rule:evenodd;stroke:#000000;stroke-width:1px;stroke-linecap:butt;stroke-linejoin:miter;stroke-opacity:1"
       d="m 402.44662,442.49826 15.46223,0.27127 c -1.12341,14.1147 -3.89931,26.71501 -6.78168,39.33377 -5.11386,-12.84643 -9.84263,-25.75447 -8.68055,-39.60504 z"
       id="path3342"
       inkscape:connector-curvature="0"
       sodipodi:nodetypes="cccc" />
    <path
       style="fill:#000000;fill-opacity:1;fill-rule:evenodd;stroke:#000000;stroke-width:1px;stroke-linecap:butt;stroke-linejoin:miter;stroke-opacity:1"
       d="m 370.70833,445.75347 11.93577,-0.54253 c -1.0261,6.17821 -2.84114,11.96196 -4.88281,17.63238 -3.00262,-5.61516 -6.04355,-11.22554 -7.05296,-17.08985 z"
       id="path3344"
       inkscape:connector-curvature="0"
       sodipodi:nodetypes="cccc" />
    <path
       style="fill:#000000;fill-opacity:1;fill-rule:evenodd;stroke:#000000;stroke-width:1px;stroke-linecap:butt;stroke-linejoin:miter;stroke-opacity:1"
       d="m 78.55339,443.0408 -16.00478,-0.54254 c -2.07038,15.85842 4.04174,32.41327 7.05295,39.60504 6.39174,-12.38564 10.25415,-20.68383 8.95183,-39.0625 z"
       id="path3346"
       inkscape:connector-curvature="0"
       sodipodi:nodetypes="cccc" />
    <path
       style="fill:#000000;fill-opacity:1;fill-rule:evenodd;stroke:#000000;stroke-width:1px;stroke-linecap:butt;stroke-linejoin:miter;stroke-opacity:1"
       d="m 104.05252,462.84332 c -2.042,-5.96788 -3.82508,-11.93577 -4.61155,-17.90365 l 11.39323,0 c -1.20126,6.08558 -3.99187,11.99457 -6.78168,17.90365 z"
       id="path3348"
       inkscape:connector-curvature="0"
       sodipodi:nodetypes="cccc" />
    <path
       style="fill:#ffffff;fill-opacity:1;fill-rule:evenodd;stroke:none;stroke-width:1px;stroke-linecap:butt;stroke-linejoin:miter;stroke-opacity:1"
       d="m 93.47309,406.55773 c 51.16294,-6.19725 101.78309,-14.02285 155.70747,-11.93577 49.0658,-1.4198 92.50935,5.99535 136.71875,12.20703 -97.06533,-6.24151 -194.64044,-4.83642 -292.42622,-0.27126 z"
       id="path4156"
       inkscape:connector-curvature="0"
       sodipodi:nodetypes="cccc" />
    <ellipse
       ry="21.211189"
       rx="19.504787"
       cy="350.58102"
       cx="453.90536"
       id="ellipse4312"
       style="opacity:1;fill:#9c00ba;fill-opacity:0.7810651;fill-rule:nonzero;stroke:#8e00b2;stroke-width:1.88621306;stroke-miterlimit:4;stroke-dasharray:none;stroke-opacity:1" />
    <ellipse
       style="opacity:1;fill:#ffffff;fill-opacity:1;fill-rule:nonzero;stroke:none;stroke-opacity:1"
       id="path4302"
       cx="454.3186"
       cy="350.84476"
       rx="15.262388"
       ry="16.796526" />
    <ellipse
       style="opacity:1;fill:#9c00ba;fill-opacity:0.7810651;fill-rule:nonzero;stroke:#8e00b2;stroke-width:1.77900004;stroke-miterlimit:4;stroke-dasharray:none;stroke-opacity:1"
       id="ellipse4310"
       cx="25.678379"
       cy="352.21146"
       rx="16.777077"
       ry="21.93615" />
    <ellipse
       ry="17.755602"
       rx="13.459697"
       cy="352.21152"
       cx="25.390657"
       id="ellipse4304"
       style="opacity:1;fill:#ffffff;fill-opacity:1;fill-rule:nonzero;stroke:none;stroke-opacity:1" />
    <path
       style="fill:#ffffff;fill-opacity:1;fill-rule:evenodd;stroke:#fff0ff;stroke-width:1px;stroke-linecap:butt;stroke-linejoin:miter;stroke-opacity:1"
       d="M 79.455464,352.68293 C 69.486411,364.41162 52,369 51.498786,369.47932 57,367 80,358 78.255209,343.01603 c 2.01885,2.58292 3.008974,7.08398 1.200255,9.6669 z"
       id="path4306"
       inkscape:connector-curvature="0"
       sodipodi:nodetypes="cccc" />
    <path
       sodipodi:nodetypes="cccc"
       inkscape:connector-curvature="0"
       id="path4308"
       d="m 401.32058,355.48869 c 9.96905,11.72869 27.45546,19.76974 27.95668,20.24906 -5.50122,-2.47932 -28.50122,-14.93199 -26.75643,-29.91596 -2.01885,2.58292 -3.00897,7.08398 -1.20025,9.6669 z"
       style="fill:#ffffff;fill-opacity:1;fill-rule:evenodd;stroke:#fff0ff;stroke-width:1px;stroke-linecap:butt;stroke-linejoin:miter;stroke-opacity:1" />
  </g>
  <g
     inkscape:groupmode="layer"
     id="layer3"
     inkscape:label="text"
     style="display:inline"
     transform="translate(0,-240)">
    <g
       style="font-style:normal;font-weight:normal;font-size:40px;line-height:125%;font-family:sans-serif;letter-spacing:0px;word-spacing:0px;fill:#000000;fill-opacity:1;stroke:none;stroke-width:1px;stroke-linecap:butt;stroke-linejoin:miter;stroke-opacity:1"
       id="flowRoot4182"
       transform="translate(-72,204)">
      <path
         d="m 308.48952,105.37363 q -1.34086,19.42314 -6.93808,30.14915 -5.56261,10.65892 -14.25543,9.77009 -8.6928,-0.88884 -12.74586,-12.53097 -4.01845,-11.70923 -2.67759,-31.13237 1.35054,-19.563344 6.94293,-30.219233 5.62214,-10.652848 14.25541,-9.770094 8.75236,0.894928 12.74104,12.601097 4.01844,11.709211 2.67758,31.13233 z m -14.50955,17.79417 q 1.25009,-2.90858 2.04662,-7.06402 0.83113,-4.22252 1.34908,-11.72531 0.47922,-6.94184 0.26774,-11.694642 -0.21154,-4.752808 -0.97055,-7.654989 -0.75417,-2.972311 -2.01153,-4.301321 -1.25735,-1.329012 -2.80538,-1.487298 -1.54803,-0.158291 -2.83638,0.698583 -1.25855,0.859916 -2.56335,3.69231 -1.17119,2.634221 -2.09575,7.34147 -0.89479,4.710287 -1.39339,11.932597 -0.44533,6.451 -0.26827,11.2709 0.18176,4.74977 0.9657,7.7251 0.76385,2.83209 1.98659,4.22817 1.25252,1.39912 2.9494,1.57263 1.45873,0.14922 2.84605,-0.83881 1.42194,-1.05505 2.53359,-3.69536 z"
         style="font-style:normal;font-variant:normal;font-weight:bold;font-stretch:normal;font-size:70px;font-family:sans-serif;-inkscape-font-specification:'sans-serif Bold';fill:#ffeaeb;fill-opacity:1"
         id="path4197"
         inkscape:connector-curvature="0" />
      <path
         d="m 336.17856,116.01116 -11.785,-2.00155 3.46549,-12.55389 c 0.51755,-1.87486 0.35014,-3.578807 0.42035,-4.935634 0.0728,-1.380412 -0.0154,-2.523747 -0.26435,-3.429997 -0.24899,-0.906256 -0.70368,-1.606979 -1.36405,-2.102166 -0.63886,-0.515583 -1.58384,-0.87853 -2.83492,-1.088841 -1.00467,-0.168887 -2.00908,-0.07361 -3.01322,0.285834 -1.00159,0.335864 -2.23279,1.059467 -2.95677,3.231187 -3.64525,16.543327 -3.43192,32.676377 -2.52693,48.712777 l -11.25655,0.34735 4.62606,-76.476338 10.23616,6.728295 -0.0739,9.036156 c 1.94989,-1.425024 3.45291,-2.053206 5.49924,-2.554402 1.77114,-0.433798 3.55063,-0.357732 5.50309,-0.02952 2.1041,0.353706 3.89772,1.56877 5.38089,3.018647 3.25633,4.078367 1.66124,12.565968 2.32522,14.98264 2.28033,-1.801668 4.55503,-4.084471 6.62172,-4.985625 2.0667,-0.901157 4.02888,-1.195595 5.88656,-0.883315 3.44996,0.579949 5.92626,2.304823 7.4289,5.174622 1.52159,2.872989 1.89851,6.70848 1.4947,11.56048 l -2.69865,35.76957 -15.41692,-1.38765 7.16934,-30.09923 c 0.45103,-1.89357 0.25281,-2.68279 0.32302,-4.03961 0.0891,-1.35365 0.11036,-3.41497 -0.13859,-4.32122 -0.23003,-0.90308 -0.67523,-1.60221 -1.33563,-2.09739 -0.65781,-0.51877 -1.66657,-0.61087 -2.94794,-0.58134 -1.05737,0.0243 -1.75258,0.31942 -2.60869,0.55968 -0.85351,0.21669 -2.0373,1.30838 -3.12355,2.88393 -1.78155,6.33739 -1.24606,4.56642 -2.03508,11.27655 z"
         style="font-style:normal;font-variant:normal;font-weight:bold;font-stretch:normal;font-size:70px;font-family:sans-serif;-inkscape-font-specification:'sans-serif Bold';fill:#ffeaeb;fill-opacity:1"
         id="path4199"
         inkscape:connector-curvature="0"
         sodipodi:nodetypes="ccscscscccccccssccsscsccscccsccc" />
      <path
         d="m 383.46289,132.45691 0,-9.43898 c -1.66341,0.16135 -3.46354,0.38994 -5.40039,0.68575 -1.93685,0.26891 -3.40657,0.59161 -4.40918,0.9681 -1.23047,0.45715 -2.1761,1.12944 -2.83691,2.01687 -0.63803,0.86053 -0.95704,2.00342 -0.95704,3.42869 0,0.9412 0.0684,1.70761 0.20508,2.29923 0.13672,0.59161 0.47852,1.15634 1.02539,1.69417 0.52409,0.53783 1.15072,0.9412 1.87989,1.21013 0.72917,0.24201 1.86849,0.36302 3.41797,0.36302 1.23047,0 2.47233,-0.29581 3.72558,-0.88742 1.27604,-0.59161 2.39258,-1.37147 3.34961,-2.33956 z m -3.01536,9.23825 c -0.66081,0.59163 -0.65815,0.59416 -1.64573,1.4186 -1.21958,1.01811 -1.90266,1.49247 -2.76855,1.97652 -1.47023,0.66115 -1.44281,0.64718 -3.25959,1.11172 C 370,146.42356 370,146.41442 368.5012,146.2861 363.76106,145.88027 362,144 360.14108,141.49245 c -2.15908,-2.91244 -2.79147,-6.06407 -2.79147,-10.20539 0,-3.30766 0.62663,-6.01027 1.87988,-8.10782 1.25325,-2.09755 3.0306,-3.75138 5.33203,-4.9615 2.27865,-1.21013 5.10417,-2.07067 8.47657,-2.5816 3.37239,-0.51093 6.87011,-0.88742 10.49316,-1.12946 l 0,-0.24202 c 0,-2.50092 -0.86589,-4.22198 -2.59766,-5.16319 -1.73177,-0.9681 -4.28385,-1.45215 -7.65625,-1.45215 -2.02799,0 -4.19271,0.43026 -6.49414,1.29079 -2.30143,0.83365 -3.95345,1.47905 -4.95605,1.93621 l -1.12793,0 0,-10.931457 c 1.29883,-0.403373 3.40657,-0.873978 6.32324,-1.411814 2.93945,-0.564719 5.87891,-0.847079 8.81836,-0.847079 6.99544,0 12.04264,1.277353 15.1416,3.83206 3.12175,2.52781 4.68262,6.50777 4.68262,11.93989 l 0.67817,34.95345 -14.03321,-1.42415 z"
         style="font-style:normal;font-variant:normal;font-weight:bold;font-stretch:normal;font-size:70px;font-family:sans-serif;-inkscape-font-specification:'sans-serif Bold';fill:#ffeaeb;fill-opacity:1"
         id="path4201"
         inkscape:connector-curvature="0"
         sodipodi:nodetypes="cccccssccscccsccsssscscscscccccscsccc" />
      <path
         d="m 430.62906,151.926 -12.31829,-1.16275 1.94905,-20.64844 c 0.15863,-1.68053 0.2367,-3.35621 0.23419,-5.02704 -1.7e-4,-1.69553 -0.15575,-2.95692 -0.46676,-3.78417 -0.3674,-0.95723 -0.97364,-1.68767 -1.81873,-2.19132 -0.82239,-0.5015 -2.01624,-0.82613 -3.58155,-0.97388 -1.1116,-0.10493 -2.26454,-0.0143 -3.45883,0.27192 -1.17161,0.28836 -2.46746,0.80186 -3.88756,1.54051 l -2.78536,29.30833 -12.25022,-1.15633 3.92959,-41.43048 12.25022,1.15633 -0.43389,4.59678 c 2.35277,-1.64797 4.57399,-2.87202 6.66364,-3.67214 2.11233,-0.79797 4.39352,-1.08132 6.84356,-0.85005 4.12879,0.38972 7.22651,2.00362 9.29317,4.8417 2.08934,2.84023 2.8879,6.86765 2.39568,12.08228 z"
         style="font-style:normal;font-variant:normal;font-weight:bold;font-stretch:normal;font-size:70px;font-family:sans-serif;-inkscape-font-specification:'sans-serif Bold';fill:#ffeaeb;fill-opacity:1"
         id="path4203"
         inkscape:connector-curvature="0"
         sodipodi:nodetypes="ccscccsccccccccscsc" />
      <path
         d="M 459.18672,144.68533 C 457,148 454,152 449.7668,153.03705 445,154 440,154 435.31588,151.37704 c -2.98224,-1.66996 -5.48433,-3.53474 -7.57282,-5.47725 -2.08849,-1.94252 -3.6692,-3.6708 -4.74213,-5.18484 l 5.0586,-13.96144 0.97682,0.56397 c 0.31633,0.68255 0.68882,1.45015 1.11745,2.30279 0.45976,0.84429 1.18287,1.89326 2.16934,3.14689 0.84304,1.09189 1.86826,2.21004 3.07566,3.35443 1.21881,1.12466 2.62742,2.14841 4.22584,3.07126 2.09177,1.20769 3.77188,1.87512 5.04035,2.0023 1.27985,0.10745 2.18182,-0.2927 2.70591,-1.20045 0.46712,-0.80908 0.50722,-1.56212 0.12029,-2.25912 -0.37554,-0.71673 -1.29528,-1.72136 -2.75923,-3.01387 -0.6868,-0.63333 -1.65405,-1.44172 -2.90174,-2.42519 -1.21656,-0.99181 -2.29193,-1.95473 -3.22612,-2.88875 -2.56353,-2.53252 -4.09692,-5.04914 -4.60017,-7.54987 -0.49187,-2.52045 -0.02,-5.0239 1.41552,-7.51034 1.8457,-3.19685 4.88771,-4.97945 9.12604,-5.34779 4.26946,-0.37667 9.02876,0.95029 14.27791,3.98088 2.48644,1.43555 4.71623,3.06497 6.68938,4.88827 2.00427,1.81495 3.48254,3.37885 4.43483,4.69169 l -4.85352,8.40653 -0.91761,-0.52978 c -0.95207,-1.99681 -2.2507,-3.91744 -3.89589,-5.76188 -1.61407,-1.85279 -3.45713,-3.37733 -5.52916,-4.57362 -1.71683,-0.99121 -3.30397,-1.59181 -4.76142,-1.8018 -1.43772,-0.19859 -2.40723,0.13625 -2.90854,1.00454 -0.45573,0.78935 -0.53682,1.54503 -0.24327,2.26706 0.29355,0.72202 1.30738,1.85989 3.04149,3.41362 0.96002,0.8437 1.99898,1.73297 3.11687,2.66782 1.14903,0.9265 2.26387,1.9122 3.34453,2.95711 2.38063,2.34799 3.78617,4.69869 4.2166,7.05212 0.44181,2.3337 0.12222,4.75959 -1.37097,7.023 z"
         style="font-style:normal;font-variant:normal;font-weight:bold;font-stretch:normal;font-size:70px;font-family:sans-serif;-inkscape-font-specification:'sans-serif Bold';fill:#ffeaeb;fill-opacity:1"
         id="path4205"
         inkscape:connector-curvature="0"
         sodipodi:nodetypes="scssccccccscscccccscscccccscscccccs" />
    </g>
    <g
       style="font-style:normal;font-weight:normal;font-size:40px;line-height:125%;font-family:sans-serif;letter-spacing:0px;word-spacing:0px;fill:#000000;fill-opacity:1;stroke:none;stroke-width:1px;stroke-linecap:butt;stroke-linejoin:miter;stroke-opacity:1"
       id="flowRoot4207"
       transform="matrix(1,0,0,0.98218061,-80.05623,188.96086)">
      <path
         d="m 247.46437,72.810727 c -5.9672,-0.890449 -11.45584,-0.184735 -15.89356,2.493594 -1.82177,30.026389 2.40474,59.076299 4.60356,89.102689 l -34.80009,3.47007 c 9.15353,-24.84647 13.7104,-57.72266 10.26209,-87.106032 -6.11199,1.738093 -8.58014,3.259561 -11.3859,6.90534 -4.3332,-3.781181 -12.19424,-11.275835 -25.39056,-6.39108 9.86724,-6.299328 25.34539,-14.496321 40.80846,-19.269512 11.62925,-2.523403 23.17108,-3.385282 32.75507,-2.840804 z"
         style="font-style:normal;font-variant:normal;font-weight:bold;font-stretch:normal;font-size:70px;font-family:sans-serif;-inkscape-font-specification:'sans-serif Bold';fill:#ffeaeb;fill-opacity:1"
         id="path4216"
         inkscape:connector-curvature="0"
         sodipodi:nodetypes="cccccccccc" />
    </g>
    <g
       transform="matrix(1,0,0,0.98435923,-35.693232,185.88571)"
       id="g4218"
       style="font-style:normal;font-weight:normal;font-size:40px;line-height:125%;font-family:sans-serif;letter-spacing:0px;word-spacing:0px;fill:#000000;fill-opacity:1;stroke:none;stroke-width:1px;stroke-linecap:butt;stroke-linejoin:miter;stroke-opacity:1">
      <path
         sodipodi:nodetypes="ccccccsccc"
         inkscape:connector-curvature="0"
         id="path4220"
         style="font-style:normal;font-variant:normal;font-weight:bold;font-stretch:normal;font-size:70px;font-family:sans-serif;-inkscape-font-specification:'sans-serif Bold';fill:#ffeaeb;fill-opacity:1"
         d="m 244.4166,85.726008 c -3.46936,-2.423355 -5.72337,-3.009989 -9.23222,-2.828197 -3.96897,28.127519 -4.28608,62.818209 3.23758,81.697149 l -40.11672,1.94246 c 3.27177,-37.39878 16.72996,-60.24048 16.11245,-84.999112 -0.75257,-5.630474 -7.36931,-5.467146 -10.43045,-5.84789 0.52716,0.03104 0.92476,-13.675622 1.39278,-13.595189 11.76504,2.021905 11.68561,2.021905 20.00626,3.719078 15.81498,5.03574 22.78167,7.970606 34.82896,13.715159 -7.50187,-0.261745 -12.52201,1.857786 -15.79864,6.196542 z" />
    </g>
    <g
       transform="matrix(0.92281199,0,0,1.6438233,-40.12638,128.59506)"
       style="font-style:normal;font-weight:normal;font-size:40px;line-height:125%;font-family:sans-serif;letter-spacing:0px;word-spacing:0px;fill:#000000;fill-opacity:1;stroke:none;stroke-width:1px;stroke-linecap:butt;stroke-linejoin:miter;stroke-opacity:1"
       id="flowRoot4241">
      <path
         d="m 180.98633,111.9538 c 0,8.11198 -2.2522,14.56055 -6.75659,19.3457 -4.50438,4.76237 -10.73103,7.14356 -18.67996,7.14356 -7.92685,0 -14.14246,-2.38119 -18.64686,-7.14356 -4.50438,-4.78515 -7.91473,-11.23372 -7.91473,-19.3457 0,-8.18034 3.41035,-14.6403 7.91473,-19.379883 4.5044,-4.76237 10.72001,-7.143555 18.64686,-7.143555 7.90476,0 14.12038,2.381185 18.64684,7.143555 4.52648,4.739583 6.78971,11.199543 6.78971,19.379883 z m -16.85834,12.88574 c 1.2365,-1.54948 2.15283,-3.3724 2.749,-5.46875 0.59616,-2.11914 0.89425,-4.60286 0.89425,-7.45117 0,-3.05339 -0.34224,-5.65104 -1.02673,-7.79297 -0.68449,-2.14193 -1.57875,-3.8737 -2.68276,-5.195311 -1.1261,-1.367187 -2.42885,-2.358398 -3.90823,-2.973633 -1.45729,-0.615234 -2.98083,-0.922851 -4.57062,-0.922851 -1.61186,0 -3.13541,0.296224 -4.57063,0.888671 -1.41314,0.592448 -2.71588,1.572266 -3.90822,2.939454 -1.10403,1.27604 -2.00932,3.04199 -2.71589,5.29785 -0.68449,2.23307 -1.02673,4.83073 -1.02673,7.79297 0,3.0306 0.3312,5.61686 0.99361,7.75879 0.68449,2.11914 1.57874,3.85091 2.68277,5.19531 1.10401,1.3444 2.39571,2.33561 3.87509,2.97363 1.47938,0.63803 3.03605,0.95704 4.67,0.95704 1.63394,0 3.1906,-0.31901 4.66998,-0.95704 1.47939,-0.66081 2.77109,-1.6748 3.87511,-3.04199 z"
         style="font-style:normal;font-variant:normal;font-weight:bold;font-stretch:normal;font-size:70px;font-family:sans-serif;-inkscape-font-specification:'sans-serif Bold';fill:#ffffff;fill-opacity:1"
         id="path4250"
         inkscape:connector-curvature="0"
         sodipodi:nodetypes="scscscscsccssccscccscssscc" />
    </g>
  </g>
</svg>
